700 0 10 0           
30 Autodesk Translation Framework 20 ASM 225.7.0.65535 NT 24 Wed Nov 20 21:06:53 2019 
1 9.999999999999999547e-07 1.000000000000000036e-10 
body $10 -1 $-1 $11 $-1 $12 #
body $13 -1 $-1 $14 $-1 $15 #
body $16 -1 $-1 $17 $-1 $18 #
body $19 -1 $-1 $20 $-1 $21 #
body $22 -1 $-1 $23 $-1 $24 #
body $25 -1 $-1 $26 $-1 $27 #
body $28 -1 $-1 $29 $-1 $30 #
body $31 -1 $-1 $32 $-1 $33 #
body $34 -1 $-1 $35 $-1 $36 #
body $37 -1 $-1 $38 $-1 $39 #
rgb_color-st-attrib $-1 -1 $40 $-1 $0 0.5176470588235294601 0.4117647058823529216 0.2941176470588235392 #
lump $-1 -1 $-1 $-1 $41 $0 #
transform $-1 -1 1 0 0 0 1 0 0 0 1 0 0 0 1 no_rotate no_reflect no_shear #
rgb_color-st-attrib $-1 -1 $42 $-1 $1 0.9647058823529411908 0.9647058823529411908 0.9529411764705881804 #
lump $-1 -1 $-1 $-1 $43 $1 #
transform $-1 -1 1 0 0 0 1 0 0 0 1 0 0 0 1 no_rotate no_reflect no_shear #
rgb_color-st-attrib $-1 -1 $44 $-1 $2 0.5176470588235294601 0.4117647058823529216 0.2941176470588235392 #
lump $-1 -1 $-1 $-1 $45 $2 #
transform $-1 -1 1 0 0 0 1 0 0 0 1 0 0 0 1 no_rotate no_reflect no_shear #
rgb_color-st-attrib $-1 -1 $46 $-1 $3 0 0 0 #
lump $-1 -1 $-1 $-1 $47 $3 #
transform $-1 -1 1 0 0 0 1 0 0 0 1 0 0 0 1 no_rotate no_reflect no_shear #
rgb_color-st-attrib $-1 -1 $48 $-1 $4 0 0 0 #
lump $-1 -1 $-1 $-1 $49 $4 #
transform $-1 -1 1 0 0 0 1 0 0 0 1 0 0 0 1 no_rotate no_reflect no_shear #
rgb_color-st-attrib $-1 -1 $50 $-1 $5 0.9294117647058823817 0.9294117647058823817 0.9294117647058823817 #
lump $-1 -1 $-1 $-1 $51 $5 #
transform $-1 -1 1 0 0 0 1 0 0 0 1 0 0 0 1 no_rotate no_reflect no_shear #
rgb_color-st-attrib $-1 -1 $52 $-1 $6 0.5176470588235294601 0.4117647058823529216 0.2941176470588235392 #
lump $-1 -1 $-1 $-1 $53 $6 #
transform $-1 -1 1 0 0 0 1 0 0 0 1 0 0 0 1 no_rotate no_reflect no_shear #
rgb_color-st-attrib $-1 -1 $54 $-1 $7 0 0 0 #
lump $-1 -1 $-1 $-1 $55 $7 #
transform $-1 -1 1 0 0 0 1 0 0 0 1 0 0 0 1 no_rotate no_reflect no_shear #
rgb_color-st-attrib $-1 -1 $56 $-1 $8 0 0 0 #
lump $-1 -1 $-1 $-1 $57 $8 #
transform $-1 -1 1 0 0 0 1 0 0 0 1 0 0 0 1 no_rotate no_reflect no_shear #
rgb_color-st-attrib $-1 -1 $58 $-1 $9 0.5176470588235294601 0.4117647058823529216 0.2941176470588235392 #
lump $-1 -1 $-1 $-1 $59 $9 #
transform $-1 -1 1 0 0 0 1 0 0 0 1 0 0 0 1 no_rotate no_reflect no_shear #
ATTRIB_CUSTOM-attrib $-1 -1 $-1 $10 $0 @20 Timestamp_attrib_def 1 1574246539036333 #
shell $-1 -1 $-1 $-1 $-1 $60 $-1 $11 #
ATTRIB_CUSTOM-attrib $-1 -1 $-1 $13 $1 @20 Timestamp_attrib_def 1 1574246539036333 #
shell $-1 -1 $-1 $-1 $-1 $61 $-1 $14 #
ATTRIB_CUSTOM-attrib $-1 -1 $-1 $16 $2 @20 Timestamp_attrib_def 1 1574246539036333 #
shell $-1 -1 $-1 $-1 $-1 $62 $-1 $17 #
ATTRIB_CUSTOM-attrib $-1 -1 $-1 $19 $3 @20 Timestamp_attrib_def 1 1574246539036333 #
shell $-1 -1 $-1 $-1 $-1 $63 $-1 $20 #
ATTRIB_CUSTOM-attrib $-1 -1 $-1 $22 $4 @20 Timestamp_attrib_def 1 1574246706892456 #
shell $-1 -1 $-1 $-1 $-1 $64 $-1 $23 #
ATTRIB_CUSTOM-attrib $-1 -1 $-1 $25 $5 @20 Timestamp_attrib_def 1 1574246539036333 #
shell $-1 -1 $-1 $-1 $-1 $65 $-1 $26 #
ATTRIB_CUSTOM-attrib $-1 -1 $-1 $28 $6 @20 Timestamp_attrib_def 1 1574246912858044 #
shell $-1 -1 $-1 $-1 $-1 $66 $-1 $29 #
ATTRIB_CUSTOM-attrib $-1 -1 $-1 $31 $7 @20 Timestamp_attrib_def 1 1574246890192461 #
shell $-1 -1 $-1 $-1 $-1 $67 $-1 $32 #
ATTRIB_CUSTOM-attrib $-1 -1 $-1 $34 $8 @20 Timestamp_attrib_def 1 1574246951108879 #
shell $-1 -1 $-1 $-1 $-1 $68 $-1 $35 #
ATTRIB_CUSTOM-attrib $-1 -1 $-1 $37 $9 @20 Timestamp_attrib_def 1 1574247295987218 #
shell $-1 -1 $-1 $-1 $-1 $69 $-1 $38 #
face $70 -1 $-1 $71 $72 $41 $-1 $73 forward double out #
face $74 -1 $-1 $75 $76 $43 $-1 $77 reversed single #
face $78 -1 $-1 $79 $80 $45 $-1 $81 forward single #
face $82 -1 $-1 $83 $84 $47 $-1 $85 forward single #
face $86 -1 $-1 $87 $88 $49 $-1 $89 forward single #
face $90 -1 $-1 $-1 $91 $51 $-1 $92 forward double out #
face $93 -1 $-1 $94 $95 $53 $-1 $96 reversed single #
face $97 -1 $-1 $98 $99 $55 $-1 $100 forward single #
face $101 -1 $-1 $102 $103 $57 $-1 $104 forward single #
face $105 -1 $-1 $106 $107 $59 $-1 $108 forward single #
DXID-attrib $-1 -1 $-1 $-1 $60 @10 ASM ENTITY @1 0 #
face $109 -1 $-1 $110 $111 $41 $-1 $112 forward double out #
loop $-1 -1 $-1 $-1 $113 $60 #
spline-surface $-1 -1 $-1 forward { rotsur 
	intcurve reversed { exactcur full nurbs 3 open 2 
	0 3 1 3 
	-145.1351006266611421 8406.505183164133996 -9.062386313690431256e-14 1 
	-379.2913102544491721 8406.505183164133996 -9.062386313690431256e-14 1 
	-241.7080576655405366 9017.030992690579296 -9.062386313690431256e-14 1 
	-241.7080576655405366 9251.848701023911417 -9.062386313690431256e-14 1 
	0 
	
	null_surface 
	null_surface 
	nullbs 
	nullbs 
	I I 
	0 
	0 
	0 
	F 1 F 0 } F -1 F -0 
	1118.989939745550828 8567.535240683668235 -9.062386313690431256e-14 1.224646799147353207e-16 1 0 
	full nurbs 3 2 both open periodic none none 2 5 
	-1 3 -0 3 
	0 2 1.570796326794896558 2 3.141592653589793116 2 4.712388980384689674 2 6.283185307179586232 2 
	-241.7080576655405366 9251.848701023911417 -9.062386313690431256e-14 1 
	-241.7080576655405366 9017.030992690579296 -9.062386313690431256e-14 1 
	-379.2913102544491721 8406.505183164133996 -9.062386313690431256e-14 1 
	-145.1351006266611421 8406.505183164133996 -9.062386313690431256e-14 1 
	-241.7080576655405366 9251.848701023911417 1360.697997411092274 0.7071067811865475727 
	-241.7080576655405366 9017.030992690579296 1360.697997411092274 0.7071067811865475727 
	-379.2913102544491721 8406.505183164133996 1498.28125 0.7071067811865475727 
	-145.1351006266611421 8406.505183164133996 1264.125040372212879 0.7071067811865475727 
	1118.989939745550828 9251.848701023911417 1360.697997411092501 1 
	1118.989939745550828 9017.030992690577477 1360.697997411092501 1 
	1118.989939745550828 8406.505183164133996 1498.281250000000227 1 
	1118.989939745550828 8406.505183164133996 1264.125040372213107 1 
	2479.687937156643329 9251.848701023911417 1360.697997411092274 0.7071067811865475727 
	2479.687937156642874 9017.030992690577477 1360.697997411092274 0.7071067811865475727 
	2617.27118974555151 8406.505183164133996 1498.28125 0.7071067811865475727 
	2383.11498011776348 8406.505183164133996 1264.125040372212879 0.7071067811865475727 
	2479.687937156643784 9251.848701023911417 -9.062386313690431256e-14 1 
	2479.687937156643784 9017.030992690577477 -9.062386313690431256e-14 1 
	2617.27118974555151 8406.505183164133996 -9.062386313690431256e-14 1 
	2383.114980117764389 8406.505183164133996 -9.062386313690431256e-14 1 
	2479.687937156643329 9251.848701023911417 -1360.697997411092274 0.7071067811865475727 
	2479.687937156642874 9017.030992690577477 -1360.697997411092274 0.7071067811865475727 
	2617.27118974555151 8406.505183164133996 -1498.28125 0.7071067811865475727 
	2383.11498011776348 8406.505183164133996 -1264.125040372212879 0.7071067811865475727 
	1118.989939745550828 9251.848701023911417 -1360.697997411092501 1 
	1118.989939745550828 9017.030992690577477 -1360.697997411092501 1 
	1118.989939745550828 8406.505183164133996 -1498.281250000000227 1 
	1118.989939745550828 8406.505183164133996 -1264.125040372213107 1 
	-241.7080576655405366 9251.848701023911417 -1360.697997411092274 0.7071067811865475727 
	-241.7080576655405366 9017.030992690579296 -1360.697997411092274 0.7071067811865475727 
	-379.2913102544491721 8406.505183164133996 -1498.28125 0.7071067811865475727 
	-145.1351006266611421 8406.505183164133996 -1264.125040372212879 0.7071067811865475727 
	-241.7080576655405366 9251.848701023911417 -9.062386313690431256e-14 1 
	-241.7080576655405366 9017.030992690579296 -9.062386313690431256e-14 1 
	-379.2913102544491721 8406.505183164133996 -9.062386313690431256e-14 1 
	-145.1351006266611421 8406.505183164133996 -9.062386313690431256e-14 1 
	0.0002500000000000000052 
	
	0 
	0 
	0 
	0 
	0 
	0 
	} I I I I #
DXID-attrib $-1 -1 $-1 $-1 $61 @10 ASM ENTITY @1 0 #
face $114 -1 $-1 $115 $116 $43 $-1 $117 forward single #
loop $-1 -1 $-1 $118 $119 $61 #
cone-surface $-1 -1 $-1 1118.989939745550828 7898.244695846096874 -4.549640018195583406e-13 1.224646799147353207e-16 1 1.224646799147353454e-16 -783.375 9.593576862820579499e-14 -4.348604809578660024e-14 1 I I 0 1 808.375 forward I I I I #
DXID-attrib $-1 -1 $-1 $-1 $62 @10 ASM ENTITY @1 0 #
face $120 -1 $-1 $-1 $121 $45 $-1 $122 forward single #
loop $-1 -1 $-1 $123 $124 $62 #
cone-surface $-1 -1 $-1 1118.989939745550828 10900.03396956940924 -9.062386313690431256e-14 1.224646798113377441e-16 1 0 2.243698189671556267e-14 -2.747737806233982577e-30 -404.1887332374670905 1 I I 0.9999902017439875612 -0.004426783936351617876 404.1887332374670905 forward I I I I #
DXID-attrib $-1 -1 $-1 $-1 $63 @10 ASM ENTITY @1 0 #
face $125 -1 $-1 $126 $127 $47 $-1 $128 forward single #
loop $-1 -1 $-1 $129 $130 $63 #
cone-surface $-1 -1 $-1 1118.989939745550828 6148.244695846096874 -7.146991304810947032e-13 1.224646799147353207e-16 1 1.224646799147354193e-16 -785.015935103027914 9.613672522035895123e-14 -4.35771382924514498e-14 1 I I 0 1 785.015935103027914 forward I I I I #
DXID-attrib $-1 -1 $-1 $-1 $64 @10 ASM ENTITY @1 0 #
face $131 -1 $-1 $132 $133 $49 $-1 $134 reversed single #
loop $-1 -1 $-1 $135 $136 $64 #
torus-surface $-1 -1 $-1 1119.128875268399952 5948.244695846096874 6.245698675651482458e-14 -1.224646799147353207e-16 -1 0 799.9999999999998863 200 0 0 -1 forward_v I I I I #
DXID-attrib $-1 -1 $-1 $-1 $65 @10 ASM ENTITY @1 0 #
loop $-1 -1 $-1 $-1 $137 $65 #
spline-surface $-1 -1 $-1 forward { rotsur 
	intcurve forward { exactcur full nurbs 5 open 11 
	0 5 0.1000000000000000056 1 0.2000000000000000111 1 0.3000000000000000444 1 0.4000000000000000222 1 
	0.5 1 0.5999999999999999778 1 0.6999999999999999556 1 0.7999999999999999334 1 0.8999999999999999112 1 
	1 5 
	1118.989939745550828 8023.244695846096874 -6.457353754494825828e-13 1 
	1118.989939745550828 7993.778412620027666 -16.63341078996858613 1 
	1118.989939745550828 7934.799440647476331 -48.67136283352043336 1 
	1118.989939745550828 7846.191771370053175 -93.04182112053437947 1 
	1118.989939745550828 7727.765163783415119 -144.7069933246474136 1 
	1118.989939745550828 7579.227963336820721 -195.9435441909216138 1 
	1118.989939745550828 7430.14110201693984 -232.6244668717294246 1 
	1118.989939745550828 7280.458644261061636 -253.5333368457355334 1 
	1118.989939745550828 7130.153571527078384 -257.9546732296142864 1 
	1118.989939745550828 6979.2480399931801 -246.4751961464075691 1 
	1118.989939745550828 6827.786338676080049 -220.2677277735680832 1 
	1118.989939745550828 6706.208025335722596 -188.4722440016359712 1 
	1118.989939745550828 6614.808798672370358 -158.9191736181014676 1 
	1118.989939745550828 6553.781766258166499 -136.7222188133905263 1 
	1118.989939745550828 6523.244695846096874 -125.0000000000006537 1 
	0 
	
	null_surface 
	null_surface 
	nullbs 
	nullbs 
	I I 
	0 
	0 
	0 
	F 1 F 0 } I I 
	1118.989939745550828 7378.652971264375083 -6.457353754494825828e-13 1.224646799147353207e-16 1 1.224646799147353454e-16 
	full nurbs 5 2 both open periodic low none 11 5 
	0 5 0.1000000000000000056 1 0.2000000000000000111 1 0.3000000000000000444 1 0.4000000000000000222 1 
	0.5 1 0.5999999999999999778 1 0.6999999999999999556 1 0.7999999999999999334 1 0.8999999999999999112 1 
	1 5 
	0 2 1.570796326794896558 2 3.141592653589793116 2 4.712388980384689674 2 6.283185307179586232 2 
	1118.989939745550828 8023.244695846096874 -6.457353754494825828e-13 1 
	1118.989939745550828 7993.778412620027666 -16.63341078996858613 1 
	1118.989939745550828 7934.799440647476331 -48.67136283352043336 1 
	1118.989939745550828 7846.191771370053175 -93.04182112053437947 1 
	1118.989939745550828 7727.765163783415119 -144.7069933246474136 1 
	1118.989939745550828 7579.227963336820721 -195.9435441909216138 1 
	1118.989939745550828 7430.14110201693984 -232.6244668717294246 1 
	1118.989939745550828 7280.458644261061636 -253.5333368457355334 1 
	1118.989939745550828 7130.153571527078384 -257.9546732296142864 1 
	1118.989939745550828 6979.2480399931801 -246.4751961464075691 1 
	1118.989939745550828 6827.786338676080049 -220.2677277735680832 1 
	1118.989939745550828 6706.208025335722596 -188.4722440016359712 1 
	1118.989939745550828 6614.808798672370358 -158.9191736181014676 1 
	1118.989939745550828 6553.781766258166499 -136.7222188133905263 1 
	1118.989939745550828 6523.244695846096874 -125.0000000000006537 1 
	1118.989939745550828 8023.244695846096874 -6.457353754494825828e-13 0.7071067811865475727 
	1102.356528955583599 7993.778412620027666 -16.63341078996858613 0.7071067811865475727 
	1070.318576912030721 7934.799440647476331 -48.67136283352043336 0.7071067811865475727 
	1025.948118625017287 7846.191771370053175 -93.04182112053437947 0.7071067811865475727 
	974.2829464209046364 7727.765163783415119 -144.7069933246474136 0.7071067811865475727 
	923.0463955546304078 7579.227963336820721 -195.9435441909216138 0.7071067811865475727 
	886.3654728738220001 7430.14110201693984 -232.6244668717294246 0.7071067811865475727 
	865.4566028998158345 7280.458644261061636 -253.5333368457355334 0.7071067811865475727 
	861.0352665159371099 7130.153571527078384 -257.9546732296142864 0.7071067811865475727 
	872.5147435991436851 6979.2480399931801 -246.4751961464075691 0.7071067811865475727 
	898.7222119719842794 6827.786338676080049 -220.2677277735680832 0.7071067811865475727 
	930.5176957439152829 6706.208025335722596 -188.4722440016359712 0.7071067811865475727 
	960.070766127449815 6614.808798672370358 -158.9191736181014676 0.7071067811865475727 
	982.26772093216141 6553.781766258166499 -136.7222188133905263 0.7071067811865475727 
	993.9899397455508279 6523.244695846096874 -125.0000000000006537 0.7071067811865475727 
	1118.989939745550828 8023.244695846096874 -6.457353754494825828e-13 1 
	1102.356528955583599 7993.778412620027666 -6.457353754494825828e-13 1 
	1070.318576912030721 7934.799440647476331 -6.457353754494825828e-13 1 
	1025.948118625017287 7846.191771370053175 -6.457353754494825828e-13 1 
	974.2829464209046364 7727.765163783415119 -6.457353754494825828e-13 1 
	923.0463955546304078 7579.227963336820721 -6.457353754494825828e-13 1 
	886.3654728738220001 7430.14110201693984 -6.457353754494825828e-13 1 
	865.4566028998158345 7280.458644261061636 -6.457353754494825828e-13 1 
	861.0352665159371099 7130.153571527078384 -6.457353754494825828e-13 1 
	872.5147435991436851 6979.2480399931801 -6.457353754494825828e-13 1 
	898.7222119719831426 6827.786338676080049 -6.457353754494825828e-13 1 
	930.5176957439152829 6706.208025335722596 -6.457353754494825828e-13 1 
	960.070766127449815 6614.808798672370358 -6.457353754494825828e-13 1 
	982.26772093216141 6553.781766258166499 -6.457353754494825828e-13 1 
	993.9899397455508279 6523.244695846096874 -6.457353754494825828e-13 1 
	1118.989939745550828 8023.244695846096874 -6.457353754494825828e-13 0.7071067811865475727 
	1102.356528955583599 7993.778412620027666 16.63341078996729294 0.7071067811865475727 
	1070.318576912030721 7934.799440647476331 48.67136283351917569 0.7071067811865475727 
	1025.948118625017287 7846.191771370053175 93.04182112053305787 0.7071067811865475727 
	974.2829464209046364 7727.765163783415119 144.7069933246461062 0.7071067811865475727 
	923.0463955546304078 7579.227963336820721 195.9435441909203064 0.7071067811865475727 
	886.3654728738220001 7430.14110201693984 232.6244668717281172 0.7071067811865475727 
	865.4566028998158345 7280.458644261061636 253.5333368457341976 0.7071067811865475727 
	861.0352665159371099 7130.153571527078384 257.954673229612979 0.7071067811865475727 
	872.5147435991436851 6979.2480399931801 246.4751961464062333 0.7071067811865475727 
	898.7222119719842794 6827.786338676080049 220.267727773566719 0.7071067811865475727 
	930.5176957439152829 6706.208025335722596 188.4722440016346638 0.7071067811865475727 
	960.070766127449815 6614.808798672370358 158.9191736181001602 0.7071067811865475727 
	982.26772093216141 6553.781766258166499 136.7222188133891905 0.7071067811865475727 
	993.9899397455508279 6523.244695846096874 124.9999999999993463 0.7071067811865475727 
	1118.989939745550828 8023.244695846096874 -6.457353754494825828e-13 1 
	1118.989939745550828 7993.778412620027666 16.63341078996729294 1 
	1118.989939745550828 7934.799440647476331 48.67136283351917569 1 
	1118.989939745550828 7846.191771370053175 93.04182112053305787 1 
	1118.989939745550828 7727.765163783415119 144.7069933246461062 1 
	1118.989939745550828 7579.227963336820721 195.9435441909203064 1 
	1118.989939745550828 7430.14110201693984 232.6244668717281172 1 
	1118.989939745550828 7280.458644261061636 253.5333368457341976 1 
	1118.989939745550828 7130.153571527078384 257.954673229612979 1 
	1118.989939745550828 6979.2480399931801 246.4751961464062333 1 
	1118.989939745550828 6827.786338676080049 220.267727773566719 1 
	1118.989939745550828 6706.208025335722596 188.4722440016346638 1 
	1118.989939745550828 6614.808798672370358 158.9191736181001602 1 
	1118.989939745550828 6553.781766258166499 136.7222188133891905 1 
	1118.989939745550828 6523.244695846096874 124.9999999999993463 1 
	1118.989939745550828 8023.244695846096874 -6.457353754494825828e-13 0.7071067811865475727 
	1135.623350535519194 7993.778412620027666 16.63341078996729294 0.7071067811865475727 
	1167.661302579070934 7934.799440647476331 48.67136283351917569 0.7071067811865475727 
	1212.031760866085506 7846.191771370053175 93.04182112053305787 0.7071067811865475727 
	1263.696933070198156 7727.765163783415119 144.7069933246461062 0.7071067811865475727 
	1314.933483936472385 7579.227963336820721 195.9435441909203064 0.7071067811865475727 
	1351.614406617279656 7430.14110201693984 232.6244668717281172 0.7071067811865475727 
	1372.523276591285821 7280.458644261061636 253.5333368457341976 0.7071067811865475727 
	1376.944612975164546 7130.153571527078384 257.954673229612979 0.7071067811865475727 
	1365.465135891957289 6979.2480399931801 246.4751961464062333 0.7071067811865475727 
	1339.257667519118058 6827.786338676080049 220.267727773566719 0.7071067811865475727 
	1307.462183747186373 6706.208025335722596 188.4722440016346638 0.7071067811865475727 
	1277.909113363651841 6614.808798672370358 158.9191736181001602 0.7071067811865475727 
	1255.712158558941383 6553.781766258166499 136.7222188133891905 0.7071067811865475727 
	1243.989939745550828 6523.244695846096874 124.9999999999993463 0.7071067811865475727 
	1118.989939745550828 8023.244695846096874 -6.457353754494825828e-13 1 
	1135.623350535519194 7993.778412620027666 -6.457353754494825828e-13 1 
	1167.661302579070934 7934.799440647476331 -6.457353754494825828e-13 1 
	1212.031760866085506 7846.191771370053175 -6.457353754494825828e-13 1 
	1263.696933070198156 7727.765163783415119 -6.457353754494825828e-13 1 
	1314.933483936472385 7579.227963336820721 -6.457353754494825828e-13 1 
	1351.614406617279656 7430.14110201693984 -6.457353754494825828e-13 1 
	1372.523276591285821 7280.458644261061636 -6.457353754494825828e-13 1 
	1376.944612975164546 7130.153571527078384 -6.457353754494825828e-13 1 
	1365.465135891957289 6979.2480399931801 -6.457353754494825828e-13 1 
	1339.257667519118058 6827.786338676080049 -6.457353754494825828e-13 1 
	1307.462183747186373 6706.208025335722596 -6.457353754494825828e-13 1 
	1277.909113363651841 6614.808798672370358 -6.457353754494825828e-13 1 
	1255.712158558941383 6553.781766258166499 -6.457353754494825828e-13 1 
	1243.989939745550828 6523.244695846096874 -6.457353754494825828e-13 1 
	1118.989939745550828 8023.244695846096874 -6.457353754494825828e-13 0.7071067811865475727 
	1135.623350535519194 7993.778412620027666 -16.63341078996858613 0.7071067811865475727 
	1167.661302579070934 7934.799440647476331 -48.67136283352043336 0.7071067811865475727 
	1212.031760866085506 7846.191771370053175 -93.04182112053437947 0.7071067811865475727 
	1263.696933070198156 7727.765163783415119 -144.7069933246474136 0.7071067811865475727 
	1314.933483936472385 7579.227963336820721 -195.9435441909216138 0.7071067811865475727 
	1351.614406617279656 7430.14110201693984 -232.6244668717294246 0.7071067811865475727 
	1372.523276591285821 7280.458644261061636 -253.5333368457355334 0.7071067811865475727 
	1376.944612975164546 7130.153571527078384 -257.9546732296142864 0.7071067811865475727 
	1365.465135891957289 6979.2480399931801 -246.4751961464075691 0.7071067811865475727 
	1339.257667519118058 6827.786338676080049 -220.2677277735680832 0.7071067811865475727 
	1307.462183747186373 6706.208025335722596 -188.4722440016359712 0.7071067811865475727 
	1277.909113363651841 6614.808798672370358 -158.9191736181014676 0.7071067811865475727 
	1255.712158558941383 6553.781766258166499 -136.7222188133905263 0.7071067811865475727 
	1243.989939745550828 6523.244695846096874 -125.0000000000006537 0.7071067811865475727 
	1118.989939745550828 8023.244695846096874 -6.457353754494825828e-13 1 
	1118.989939745550828 7993.778412620027666 -16.63341078996858613 1 
	1118.989939745550828 7934.799440647476331 -48.67136283352043336 1 
	1118.989939745550828 7846.191771370053175 -93.04182112053437947 1 
	1118.989939745550828 7727.765163783415119 -144.7069933246474136 1 
	1118.989939745550828 7579.227963336820721 -195.9435441909216138 1 
	1118.989939745550828 7430.14110201693984 -232.6244668717294246 1 
	1118.989939745550828 7280.458644261061636 -253.5333368457355334 1 
	1118.989939745550828 7130.153571527078384 -257.9546732296142864 1 
	1118.989939745550828 6979.2480399931801 -246.4751961464075691 1 
	1118.989939745550828 6827.786338676080049 -220.2677277735680832 1 
	1118.989939745550828 6706.208025335722596 -188.4722440016359712 1 
	1118.989939745550828 6614.808798672370358 -158.9191736181014676 1 
	1118.989939745550828 6553.781766258166499 -136.7222188133905263 1 
	1118.989939745550828 6523.244695846096874 -125.0000000000006537 1 
	0.0002500000000000000052 
	
	0 
	0 
	0 
	0 
	0 
	0 
	} I I I I #
DXID-attrib $-1 -1 $-1 $-1 $66 @10 ASM ENTITY @1 0 #
face $138 -1 $-1 $139 $140 $53 $-1 $141 forward single #
loop $-1 -1 $-1 $-1 $142 $66 #
plane-surface $-1 -1 $-1 1119.128875268399952 5948.244695846096874 0 -1.224646799147353207e-16 -1 0 10 -1.224646799147353256e-15 0 forward_v I I I I #
DXID-attrib $-1 -1 $-1 $-1 $67 @10 ASM ENTITY @1 0 #
face $143 -1 $-1 $144 $145 $55 $-1 $146 reversed single #
loop $-1 -1 $-1 $147 $148 $67 #
torus-surface $-1 -1 $-1 1119.128875268399725 5748.514623148588726 -1.242014001808057747e-13 -1.224646799147353207e-16 1 -1.224646799147353207e-16 799.9999999999998863 200 0 1.224646799147353207e-16 1 forward_v I I I I #
DXID-attrib $-1 -1 $-1 $-1 $68 @10 ASM ENTITY @1 0 #
face $149 -1 $-1 $150 $151 $57 $-1 $152 reversed single #
loop $-1 -1 $-1 $153 $154 $68 #
torus-surface $-1 -1 $-1 1119.128875268399952 5348.244695846096874 6.245698675651482458e-14 -1.224646799147353207e-16 -1 0 799.9999999999998863 200 0 0 -1 forward_v I I I I #
DXID-attrib $-1 -1 $-1 $-1 $69 @10 ASM ENTITY @1 0 #
face $155 -1 $-1 $156 $157 $59 $-1 $158 forward single #
loop $-1 -1 $-1 $159 $160 $69 #
cone-surface $-1 -1 $-1 1118.9899397455506 5348.244695846096874 -8.592273520880386817e-13 -1.218073261303028704e-16 -1 -1.2246467991473537e-16 807.8216033312957052 -9.83985894920792881e-14 1.211538352241698163e-29 1 I I 0 1 807.8216033312957052 forward I I I I #
DXID-attrib $-1 -1 $-1 $-1 $71 @10 ASM ENTITY @1 1 #
face $161 -1 $-1 $162 $163 $41 $-1 $164 forward double out #
loop $-1 -1 $-1 $-1 $165 $71 #
spline-surface $-1 -1 $-1 forward { rotsur 
	intcurve reversed { exactcur full nurbs 3 open 2 
	0 3 1 3 
	-241.7080576655405366 9251.848701023911417 -9.062386313690431256e-14 1 
	-620.062305076633038 9495.265387876685054 -9.062386313690431256e-14 1 
	-339.6038102544491721 9329.900804543351114 -9.062386313690431256e-14 1 
	-491.7392269211154598 9522.385118985032022 -9.062386313690431256e-14 1 
	0 
	
	null_surface 
	null_surface 
	nullbs 
	nullbs 
	I I 
	0 
	0 
	0 
	F 1 F 0 } F -1 F -0 
	1118.989939745550828 8567.535240683668235 -9.062386313690431256e-14 1.224646799147353207e-16 1 0 
	full nurbs 3 2 both open periodic none none 2 5 
	-1 3 -0 3 
	0 2 1.570796326794896558 2 3.141592653589793116 2 4.712388980384689674 2 6.283185307179586232 2 
	-491.7392269211154598 9522.385118985032022 -9.062386313690431256e-14 1 
	-339.6038102544491721 9329.900804543351114 -9.062386313690431256e-14 1 
	-620.062305076633038 9495.265387876685054 -9.062386313690431256e-14 1 
	-241.7080576655405366 9251.848701023911417 -9.062386313690431256e-14 1 
	-491.7392269211154598 9522.385118985032022 1610.72916666666697 0.7071067811865475727 
	-339.6038102544491721 9329.900804543351114 1458.59375 0.7071067811865475727 
	-620.062305076633038 9495.265387876685054 1739.052244822184548 0.7071067811865475727 
	-241.7080576655405366 9251.848701023911417 1360.697997411092274 0.7071067811865475727 
	1118.989939745550828 9522.385118985032022 1610.729166666667197 1 
	1118.989939745550828 9329.900804543351114 1458.593750000000227 1 
	1118.989939745550828 9495.265387876685054 1739.052244822184775 1 
	1118.989939745550828 9251.848701023911417 1360.697997411092501 1 
	2729.719106412218025 9522.385118985032022 1610.72916666666697 0.7071067811865475727 
	2577.58368974555151 9329.900804543351114 1458.59375 0.7071067811865475727 
	2858.042184567735603 9495.265387876685054 1739.052244822184548 0.7071067811865475727 
	2479.687937156643329 9251.848701023911417 1360.697997411092274 0.7071067811865475727 
	2729.719106412218935 9522.385118985032022 -9.062386313690431256e-14 1 
	2577.583689745551965 9329.900804543351114 -9.062386313690431256e-14 1 
	2858.042184567736513 9495.265387876685054 -9.062386313690431256e-14 1 
	2479.687937156643784 9251.848701023911417 -9.062386313690431256e-14 1 
	2729.719106412218025 9522.385118985032022 -1610.72916666666697 0.7071067811865475727 
	2577.58368974555151 9329.900804543351114 -1458.59375 0.7071067811865475727 
	2858.042184567735603 9495.265387876685054 -1739.052244822184548 0.7071067811865475727 
	2479.687937156643329 9251.848701023911417 -1360.697997411092274 0.7071067811865475727 
	1118.989939745550828 9522.385118985032022 -1610.729166666667197 1 
	1118.989939745550828 9329.900804543351114 -1458.593750000000227 1 
	1118.989939745550828 9495.265387876685054 -1739.052244822184775 1 
	1118.989939745550828 9251.848701023911417 -1360.697997411092501 1 
	-491.7392269211154598 9522.385118985032022 -1610.72916666666697 0.7071067811865475727 
	-339.6038102544491721 9329.900804543351114 -1458.59375 0.7071067811865475727 
	-620.062305076633038 9495.265387876685054 -1739.052244822184548 0.7071067811865475727 
	-241.7080576655405366 9251.848701023911417 -1360.697997411092274 0.7071067811865475727 
	-491.7392269211154598 9522.385118985032022 -9.062386313690431256e-14 1 
	-339.6038102544491721 9329.900804543351114 -9.062386313690431256e-14 1 
	-620.062305076633038 9495.265387876685054 -9.062386313690431256e-14 1 
	-241.7080576655405366 9251.848701023911417 -9.062386313690431256e-14 1 
	0.0002500000000000000052 
	
	0 
	0 
	0 
	0 
	0 
	0 
	} I I I I #
coedge $-1 -1 $-1 $166 $167 $168 $169 reversed $72 $170 #
DXID-attrib $-1 -1 $-1 $-1 $75 @10 ASM ENTITY @1 1 #
face $171 -1 $-1 $172 $173 $43 $-1 $174 forward single #
loop $-1 -1 $-1 $-1 $175 $75 #
plane-surface $-1 -1 $-1 1118.989939745550828 10723.24469584609687 -1.110809236220651742e-13 -1.224646799147353207e-16 -1 -1.224646799147353454e-16 -250 3.061616997868383121e-14 -1.38777878078144536e-14 forward_v I I I I #
loop $-1 -1 $-1 $-1 $176 $61 #
coedge $-1 -1 $-1 $119 $119 $177 $178 reversed $76 $-1 #
DXID-attrib $-1 -1 $-1 $-1 $79 @10 ASM ENTITY @1 1 #
loop $-1 -1 $-1 $-1 $179 $79 #
spline-surface $-1 -1 $-1 forward { rotsur 
	intcurve reversed { exactcur full nurbs 5 open 11 
	0 5 0.1000000000000000056 1 0.2000000000000000111 1 0.3000000000000000444 1 0.4000000000000000222 1 
	0.5 1 0.5999999999999999778 1 0.6999999999999999556 1 0.7999999999999999334 1 0.8999999999999999112 1 
	1 5 
	1118.989939745550828 10898.24469584609687 -808.377466474934181 1 
	1118.989939745550828 10928.33708266706708 -799.899292639792975 1 
	1118.989939745550828 10987.96993377136641 -782.27610071119841 1 
	1118.989939745550828 11075.76351158647958 -753.8408631346312632 1 
	1118.989939745550828 11189.45514416938386 -711.8597727348235367 1 
	1118.989939745550828 11325.57475440242524 -652.1402103600926239 1 
	1118.989939745550828 11455.15080145202774 -584.5145792173341306 1 
	1118.989939745550828 11577.62884515311271 -508.3129931990817454 1 
	1118.989939745550828 11692.66974598647357 -423.1256969040884997 1 
	1118.989939745550828 11800.52016538877433 -329.2507117969024648 1 
	1118.989939745550828 11901.70318176173532 -227.320032052763878 1 
	1118.989939745550828 11977.74331286541383 -139.8476165845046069 1 
	1118.989939745550828 12032.18757396693036 -71.11904281082928492 1 
	1118.989939745550828 12067.35317756752193 -23.93401493963546756 1 
	1118.989939745550828 12084.6533315104025 -9.062386313690431256e-14 1 
	0 
	
	null_surface 
	null_surface 
	nullbs 
	nullbs 
	I I 
	0 
	0 
	0 
	F 1 F 0 } F -1 F -0 
	1118.989939745550828 11496.22743160628306 -9.062386313690431256e-14 1.224646798113377441e-16 1 0 
	full nurbs 5 2 both open periodic low none 11 5 
	-1 5 -0.8999999999999999112 1 -0.7999999999999999334 1 -0.6999999999999999556 1 -0.5999999999999999778 1 
	-0.5 1 -0.4000000000000000222 1 -0.3000000000000000444 1 -0.2000000000000000111 1 -0.1000000000000000056 1 
	-0 5 
	0 2 1.570796326794896558 2 3.141592653589793116 2 4.712388980384689674 2 6.283185307179586232 2 
	1118.989939745550828 12084.6533315104025 -9.062386313690431256e-14 1 
	1118.989939745550828 12067.35317756752193 -23.93401493963546756 1 
	1118.989939745550828 12032.18757396693036 -71.11904281082928492 1 
	1118.989939745550828 11977.74331286541383 -139.8476165845046069 1 
	1118.989939745550828 11901.70318176173532 -227.320032052763878 1 
	1118.989939745550828 11800.52016538877433 -329.2507117969024648 1 
	1118.989939745550828 11692.66974598647357 -423.1256969040884997 1 
	1118.989939745550828 11577.62884515311271 -508.3129931990817454 1 
	1118.989939745550828 11455.15080145202774 -584.5145792173341306 1 
	1118.989939745550828 11325.57475440242524 -652.1402103600926239 1 
	1118.989939745550828 11189.45514416938386 -711.8597727348235367 1 
	1118.989939745550828 11075.76351158647958 -753.8408631346312632 1 
	1118.989939745550828 10987.96993377136641 -782.27610071119841 1 
	1118.989939745550828 10928.33708266706708 -799.899292639792975 1 
	1118.989939745550828 10898.24469584609687 -808.377466474934181 1 
	1118.989939745550828 12084.6533315104025 -9.062386313690431256e-14 0.7071067811865475727 
	1095.055924805916447 12067.35317756752193 -23.93401493963546756 0.7071067811865475727 
	1047.870896934722396 12032.18757396693036 -71.11904281082928492 0.7071067811865475727 
	979.1423231610474431 11977.74331286541383 -139.8476165845045784 0.7071067811865475727 
	891.6699076927875467 11901.70318176173532 -227.3200320527638212 0.7071067811865475727 
	789.7392279486496136 11800.52016538877433 -329.2507117969024648 0.7071067811865475727 
	695.8642428414634651 11692.66974598647357 -423.1256969040884428 0.7071067811865475727 
	610.6769465464697078 11577.62884515311271 -508.3129931990816317 0.7071067811865475727 
	534.4753605282176068 11455.15080145202774 -584.5145792173339032 0.7071067811865475727 
	466.8497293854591135 11325.57475440242524 -652.1402103600923965 0.7071067811865475727 
	407.1301670107277459 11189.45514416938386 -711.8597727348233093 0.7071067811865475727 
	365.1490766109202468 11075.76351158647958 -753.8408631346310358 0.7071067811865475727 
	336.7138390343529863 10987.96993377136641 -782.2761007111980689 0.7071067811865475727 
	319.0906471057576255 10928.33708266706708 -799.8992926397927477 0.7071067811865475727 
	310.6124732706177838 10898.24469584609687 -808.3774664749339536 0.7071067811865475727 
	1118.989939745550828 12084.6533315104025 -9.062386313690431256e-14 1 
	1095.055924805916447 12067.35317756752193 -9.062386313690431256e-14 1 
	1047.870896934722396 12032.18757396693036 -9.756275704081151569e-14 1 
	979.1423231610474431 11977.74331286541383 -1.045016509447187441e-13 1 
	891.6699076927875467 11901.70318176173532 -1.045016509447187441e-13 1 
	789.7392279486496136 11800.52016538877433 -1.114405448486259724e-13 1 
	695.8642428414634651 11692.66974598647357 -1.114405448486259724e-13 1 
	610.6769465464697078 11577.62884515311271 -1.183794387525332008e-13 1 
	534.4753605282176068 11455.15080145202774 -1.253183326564404292e-13 1 
	466.8497293854591135 11325.57475440242524 -1.253183326564404292e-13 1 
	407.1301670107277459 11189.45514416938386 -1.253183326564404292e-13 1 
	365.1490766109202468 11075.76351158647958 -1.322572265603476576e-13 1 
	336.7138390343529863 10987.96993377136641 -1.39196120464254886e-13 1 
	319.0906471057576255 10928.33708266706708 -1.322572265603476576e-13 1 
	310.6124732706166469 10898.24469584609687 -1.322572265603476576e-13 1 
	1118.989939745550828 12084.6533315104025 -9.062386313690431256e-14 0.7071067811865475727 
	1095.055924805916447 12067.35317756752193 23.93401493963526505 0.7071067811865475727 
	1047.870896934722396 12032.18757396693036 71.11904281082910018 0.7071067811865475727 
	979.1423231610474431 11977.74331286541383 139.8476165845043795 0.7071067811865475727 
	891.6699076927875467 11901.70318176173532 227.3200320527635654 0.7071067811865475727 
	789.7392279486496136 11800.52016538877433 329.2507117969023511 0.7071067811865475727 
	695.8642428414634651 11692.66974598647357 423.1256969040882723 0.7071067811865475727 
	610.6769465464697078 11577.62884515311271 508.3129931990815749 0.7071067811865475727 
	534.4753605282176068 11455.15080145202774 584.5145792173339032 0.7071067811865475727 
	466.8497293854591135 11325.57475440242524 652.1402103600923965 0.7071067811865475727 
	407.1301670107277459 11189.45514416938386 711.8597727348233093 0.7071067811865475727 
	365.1490766109202468 11075.76351158647958 753.8408631346310358 0.7071067811865475727 
	336.7138390343529863 10987.96993377136641 782.2761007111980689 0.7071067811865475727 
	319.0906471057576255 10928.33708266706708 799.8992926397927477 0.7071067811865475727 
	310.6124732706177838 10898.24469584609687 808.3774664749339536 0.7071067811865475727 
	1118.989939745550828 12084.6533315104025 -9.062386313690431256e-14 1 
	1118.989939745550828 12067.35317756752193 23.93401493963527571 1 
	1118.989939745550828 12032.18757396693036 71.1190428108291286 1 
	1118.989939745550828 11977.74331286541383 139.8476165845044079 1 
	1118.989939745550828 11901.70318176173532 227.3200320527636222 1 
	1118.989939745550828 11800.52016538877433 329.2507117969024648 1 
	1118.989939745550828 11692.66974598647357 423.1256969040884428 1 
	1118.989939745550828 11577.62884515311271 508.3129931990816317 1 
	1118.989939745550828 11455.15080145202774 584.5145792173341306 1 
	1118.989939745550828 11325.57475440242524 652.1402103600926239 1 
	1118.989939745550828 11189.45514416938386 711.8597727348235367 1 
	1118.989939745550828 11075.76351158647958 753.8408631346312632 1 
	1118.989939745550828 10987.96993377136641 782.27610071119841 1 
	1118.989939745550828 10928.33708266706708 799.899292639792975 1 
	1118.989939745550828 10898.24469584609687 808.377466474934181 1 
	1118.989939745550828 12084.6533315104025 -9.062386313690431256e-14 0.7071067811865475727 
	1142.923954685187482 12067.35317756752193 23.9340149396352686 0.7071067811865475727 
	1190.108982556380397 12032.18757396693036 71.1190428108291286 0.7071067811865475727 
	1258.837556330056486 11977.74331286541383 139.8476165845043795 0.7071067811865475727 
	1346.309971798315246 11901.70318176173532 227.3200320527635938 0.7071067811865475727 
	1448.240651542453634 11800.52016538877433 329.2507117969023511 0.7071067811865475727 
	1542.115636649640464 11692.66974598647357 423.1256969040882723 0.7071067811865475727 
	1627.30293294463354 11577.62884515311271 508.3129931990816317 0.7071067811865475727 
	1703.504518962885186 11455.15080145202774 584.5145792173341306 0.7071067811865475727 
	1771.130150105643679 11325.57475440242524 652.1402103600926239 0.7071067811865475727 
	1830.849712480374365 11189.45514416938386 711.8597727348235367 0.7071067811865475727 
	1872.830802880182091 11075.76351158647958 753.8408631346311495 0.7071067811865475727 
	1901.266040456749124 10987.96993377136641 782.2761007111982963 0.7071067811865475727 
	1918.889232385344712 10928.33708266706708 799.899292639792975 0.7071067811865475727 
	1927.367406220485009 10898.24469584609687 808.3774664749340673 0.7071067811865475727 
	1118.989939745550828 12084.6533315104025 -9.062386313690431256e-14 1 
	1142.923954685187482 12067.35317756752193 -9.062386313690431256e-14 1 
	1190.108982556380397 12032.18757396693036 -9.062386313690431256e-14 1 
	1258.837556330056486 11977.74331286541383 -8.368496923299708418e-14 1 
	1346.309971798315246 11901.70318176173532 -7.67460753290898558e-14 1 
	1448.240651542453634 11800.52016538877433 -7.67460753290898558e-14 1 
	1542.115636649640464 11692.66974598647357 -6.286828752127539905e-14 1 
	1627.30293294463354 11577.62884515311271 -6.286828752127539905e-14 1 
	1703.504518962885186 11455.15080145202774 -6.286828752127539905e-14 1 
	1771.130150105643679 11325.57475440242524 -5.592939361736817067e-14 1 
	1830.849712480374365 11189.45514416938386 -4.899049971346094229e-14 1 
	1872.830802880183001 11075.76351158647958 -4.899049971346094229e-14 1 
	1901.266040456749124 10987.96993377136641 -4.899049971346094229e-14 1 
	1918.889232385344712 10928.33708266706708 -4.205160580955371391e-14 1 
	1927.367406220485464 10898.24469584609687 -4.205160580955371391e-14 1 
	1118.989939745550828 12084.6533315104025 -9.062386313690431256e-14 0.7071067811865475727 
	1142.923954685187482 12067.35317756752193 -23.93401493963544979 0.7071067811865475727 
	1190.108982556380397 12032.18757396693036 -71.1190428108292565 0.7071067811865475727 
	1258.837556330056486 11977.74331286541383 -139.8476165845045784 0.7071067811865475727 
	1346.309971798315246 11901.70318176173532 -227.3200320527637928 0.7071067811865475727 
	1448.240651542453634 11800.52016538877433 -329.2507117969024648 0.7071067811865475727 
	1542.115636649640464 11692.66974598647357 -423.1256969040884428 0.7071067811865475727 
	1627.30293294463354 11577.62884515311271 -508.3129931990815749 0.7071067811865475727 
	1703.504518962885186 11455.15080145202774 -584.5145792173339032 0.7071067811865475727 
	1771.130150105643679 11325.57475440242524 -652.1402103600922828 0.7071067811865475727 
	1830.849712480374365 11189.45514416938386 -711.8597727348231956 0.7071067811865475727 
	1872.830802880182091 11075.76351158647958 -753.8408631346310358 0.7071067811865475727 
	1901.266040456749124 10987.96993377136641 -782.2761007111979552 0.7071067811865475727 
	1918.889232385344712 10928.33708266706708 -799.899292639792634 0.7071067811865475727 
	1927.367406220485009 10898.24469584609687 -808.3774664749337262 0.7071067811865475727 
	1118.989939745550828 12084.6533315104025 -9.062386313690431256e-14 1 
	1118.989939745550828 12067.35317756752193 -23.93401493963546756 1 
	1118.989939745550828 12032.18757396693036 -71.11904281082928492 1 
	1118.989939745550828 11977.74331286541383 -139.8476165845046069 1 
	1118.989939745550828 11901.70318176173532 -227.320032052763878 1 
	1118.989939745550828 11800.52016538877433 -329.2507117969024648 1 
	1118.989939745550828 11692.66974598647357 -423.1256969040884997 1 
	1118.989939745550828 11577.62884515311271 -508.3129931990817454 1 
	1118.989939745550828 11455.15080145202774 -584.5145792173341306 1 
	1118.989939745550828 11325.57475440242524 -652.1402103600926239 1 
	1118.989939745550828 11189.45514416938386 -711.8597727348235367 1 
	1118.989939745550828 11075.76351158647958 -753.8408631346312632 1 
	1118.989939745550828 10987.96993377136641 -782.27610071119841 1 
	1118.989939745550828 10928.33708266706708 -799.899292639792975 1 
	1118.989939745550828 10898.24469584609687 -808.377466474934181 1 
	0.0002500000000000000052 
	
	0 
	0 
	0 
	0 
	0 
	0 
	} I I I I #
loop $-1 -1 $-1 $-1 $180 $62 #
coedge $-1 -1 $-1 $124 $124 $-1 $181 forward $80 $-1 #
DXID-attrib $-1 -1 $-1 $-1 $83 @10 ASM ENTITY @1 1 #
face $182 -1 $-1 $-1 $183 $47 $-1 $184 reversed single #
loop $-1 -1 $-1 $-1 $185 $83 #
plane-surface $-1 -1 $-1 1118.989939745550828 6148.244695846096874 -7.146991304810947032e-13 -1.224646799147353207e-16 -1 -1.224646799147353454e-16 -250 3.061616997868383121e-14 -1.38777878078144536e-14 forward_v I I I I #
loop $-1 -1 $-1 $-1 $186 $63 #
coedge $-1 -1 $-1 $130 $130 $187 $188 reversed $84 $-1 #
DXID-attrib $-1 -1 $-1 $-1 $87 @10 ASM ENTITY @1 1 #
face $189 -1 $-1 $-1 $190 $49 $-1 $191 forward single #
loop $-1 -1 $-1 $-1 $192 $87 #
plane-surface $-1 -1 $-1 1119.128875268399952 6148.244695846096874 6.245698675651482458e-14 -1.224646799147353207e-16 -1 0 250 -3.061616997868383121e-14 0 forward_v I I I I #
loop $-1 -1 $-1 $-1 $193 $64 #
coedge $-1 -1 $-1 $136 $136 $192 $194 forward $88 $-1 #
coedge $-1 -1 $-1 $195 $196 $196 $197 forward $91 $198 #
DXID-attrib $-1 -1 $-1 $-1 $94 @10 ASM ENTITY @1 1 #
face $199 -1 $-1 $-1 $200 $53 $-1 $201 forward single #
loop $-1 -1 $-1 $202 $203 $94 #
torus-surface $-1 -1 $-1 1119.128875268399952 5848.244695846096874 6.245698675651482458e-14 -1.224646799147353207e-16 -1 0 1150.000000000000227 100 0 0 -1 forward_v I I I I #
coedge $-1 -1 $-1 $142 $142 $203 $204 reversed $95 $-1 #
DXID-attrib $-1 -1 $-1 $-1 $98 @10 ASM ENTITY @1 1 #
face $205 -1 $-1 $-1 $206 $55 $-1 $207 forward single #
loop $-1 -1 $-1 $-1 $208 $98 #
plane-surface $-1 -1 $-1 1119.128875268399725 5548.514623148588726 -9.970846419785874506e-14 -1.224646799147353207e-16 1 -1.224646799147353207e-16 250 3.061616997868383121e-14 -3.749399456654644501e-30 forward_v I I I I #
loop $-1 -1 $-1 $-1 $209 $67 #
coedge $-1 -1 $-1 $148 $148 $208 $210 forward $99 $-1 #
DXID-attrib $-1 -1 $-1 $-1 $102 @10 ASM ENTITY @1 1 #
face $211 -1 $-1 $-1 $212 $57 $-1 $213 forward single #
loop $-1 -1 $-1 $-1 $214 $102 #
plane-surface $-1 -1 $-1 1119.128875268399952 5548.244695846096874 6.245698675651482458e-14 -1.224646799147353207e-16 -1 0 250 -3.061616997868383121e-14 0 forward_v I I I I #
loop $-1 -1 $-1 $-1 $215 $68 #
coedge $-1 -1 $-1 $154 $154 $214 $216 forward $103 $-1 #
DXID-attrib $-1 -1 $-1 $-1 $106 @10 ASM ENTITY @1 1 #
face $217 -1 $-1 $-1 $218 $59 $-1 $219 reversed single #
loop $-1 -1 $-1 $-1 $220 $106 #
plane-surface $-1 -1 $-1 1118.989939745548782 -8651.755304153903126 -2.527176393219178127e-12 -1.224646799147352961e-16 -1 -1.224646799147353454e-16 10 -1.224646799147353059e-15 1.491709520581732914e-31 forward_v I I I I #
loop $-1 -1 $-1 $-1 $221 $69 #
coedge $-1 -1 $-1 $160 $160 $220 $222 reversed $107 $-1 #
DXID-attrib $-1 -1 $-1 $-1 $110 @10 ASM ENTITY @1 2 #
face $223 -1 $-1 $224 $225 $41 $-1 $226 forward double out #
loop $-1 -1 $-1 $-1 $227 $110 #
spline-surface $-1 -1 $-1 forward { rotsur 
	intcurve reversed { exactcur full nurbs 3 open 2 
	0 3 1 3 
	-491.7392269211154598 9522.385118985032022 -9.062386313690431256e-14 1 
	-699.4371032155697776 9784.984158062790812 -9.062386313690431256e-14 1 
	-813.8695159988742489 10024.43195361282051 -9.062386313690431256e-14 1 
	-1080.437143587781748 10089.91649010167203 -9.062386313690431256e-14 1 
	0 
	
	null_surface 
	null_surface 
	nullbs 
	nullbs 
	I I 
	0 
	0 
	0 
	F 1 F 0 } F -1 F -0 
	1118.989939745550828 8567.535240683668235 -9.062386313690431256e-14 1.224646799147353207e-16 1 0 
	full nurbs 3 2 both open periodic none none 2 5 
	-1 3 -0 3 
	0 2 1.570796326794896558 2 3.141592653589793116 2 4.712388980384689674 2 6.283185307179586232 2 
	-1080.437143587781748 10089.91649010167203 -9.062386313690431256e-14 1 
	-813.8695159988742489 10024.43195361282051 -9.062386313690431256e-14 1 
	-699.4371032155697776 9784.984158062790812 -9.062386313690431256e-14 1 
	-491.7392269211154598 9522.385118985032022 -9.062386313690431256e-14 1 
	-1080.437143587781748 10089.91649010167203 2199.42708333333303 0.7071067811865475727 
	-813.8695159988742489 10024.43195361282051 1932.859455744425304 0.7071067811865475727 
	-699.4371032155697776 9784.984158062790812 1818.427042961120605 0.7071067811865475727 
	-491.7392269211154598 9522.385118985032022 1610.72916666666697 0.7071067811865475727 
	1118.989939745550828 10089.91649010167021 2199.42708333333394 1 
	1118.989939745550828 10024.43195361281869 1932.859455744425986 1 
	1118.989939745550828 9784.984158062790812 1818.42704296112106 1 
	1118.989939745550828 9522.385118985032022 1610.729166666667197 1 
	3318.41702307888454 10089.91649010167021 2199.42708333333303 0.7071067811865475727 
	3051.849395489976814 10024.43195361281869 1932.859455744425304 0.7071067811865475727 
	2937.416982706672115 9784.984158062790812 1818.427042961120605 0.7071067811865475727 
	2729.719106412218025 9522.385118985032022 1610.72916666666697 0.7071067811865475727 
	3318.417023078884995 10089.91649010167021 -9.062386313690431256e-14 1 
	3051.849395489976814 10024.43195361281869 -9.062386313690431256e-14 1 
	2937.41698270667257 9784.984158062790812 -9.062386313690431256e-14 1 
	2729.719106412218935 9522.385118985032022 -9.062386313690431256e-14 1 
	3318.41702307888454 10089.91649010167021 -2199.42708333333303 0.7071067811865475727 
	3051.849395489976814 10024.43195361281869 -1932.859455744425304 0.7071067811865475727 
	2937.416982706672115 9784.984158062790812 -1818.427042961120605 0.7071067811865475727 
	2729.719106412218025 9522.385118985032022 -1610.72916666666697 0.7071067811865475727 
	1118.989939745550828 10089.91649010167021 -2199.42708333333394 1 
	1118.989939745550828 10024.43195361281869 -1932.859455744425986 1 
	1118.989939745550828 9784.984158062790812 -1818.42704296112106 1 
	1118.989939745550828 9522.385118985032022 -1610.729166666667197 1 
	-1080.437143587781748 10089.91649010167203 -2199.42708333333303 0.7071067811865475727 
	-813.8695159988742489 10024.43195361282051 -1932.859455744425304 0.7071067811865475727 
	-699.4371032155697776 9784.984158062790812 -1818.427042961120605 0.7071067811865475727 
	-491.7392269211154598 9522.385118985032022 -1610.72916666666697 0.7071067811865475727 
	-1080.437143587781748 10089.91649010167203 -9.062386313690431256e-14 1 
	-813.8695159988742489 10024.43195361282051 -9.062386313690431256e-14 1 
	-699.4371032155697776 9784.984158062790812 -9.062386313690431256e-14 1 
	-491.7392269211154598 9522.385118985032022 -9.062386313690431256e-14 1 
	0.0002500000000000000052 
	
	0 
	0 
	0 
	0 
	0 
	0 
	} I I I I #
coedge $-1 -1 $-1 $228 $229 $230 $231 reversed $111 $232 #
coedge $-1 -1 $-1 $168 $113 $233 $234 forward $72 $235 #
coedge $-1 -1 $-1 $113 $168 $228 $236 reversed $72 $237 #
coedge $-1 -1 $-1 $167 $166 $113 $169 forward $72 $238 #
edge $239 -1 $-1 $240 0 $241 1 $168 $242 forward @7 tangent #
pcurve $-1 -1 $-1 0 forward { exppc nubs 1 open 2 
	-1 1 -0 1 
	-1 0 
	0 0 
	0 
	spline forward { ref 0 } I I I I 
	} 0 0 #
DXID-attrib $-1 -1 $-1 $-1 $115 @10 ASM ENTITY @1 2 #
face $243 -1 $-1 $244 $245 $43 $-1 $246 forward single #
loop $-1 -1 $-1 $247 $177 $115 #
plane-surface $-1 -1 $-1 1118.989939745550828 6148.244695846096874 -6.692771916703452033e-13 -1.224646799147353207e-16 -1 -1.224646799147353454e-16 -250 3.061616997868383121e-14 -1.38777878078144536e-14 forward_v I I I I #
coedge $-1 -1 $-1 $175 $175 $176 $248 reversed $116 $-1 #
coedge $-1 -1 $-1 $176 $176 $175 $248 forward $118 $-1 #
coedge $-1 -1 $-1 $177 $177 $119 $178 forward $173 $-1 #
edge $-1 -1 $-1 $249 -3.141592653589793116 $249 3.141592653589793116 $177 $250 forward @7 unknown #
coedge $251 -1 $-1 $252 $253 $253 $254 reversed $121 $255 #
coedge $-1 -1 $-1 $180 $180 $252 $256 reversed $123 $-1 #
edge $-1 -1 $-1 $257 1 $257 0 $124 $-1 forward @7 unknown #
DXID-attrib $-1 -1 $-1 $-1 $126 @10 ASM ENTITY @1 2 #
loop $-1 -1 $-1 $-1 $187 $126 #
plane-surface $-1 -1 $-1 1118.989939745550828 6523.244695846096874 -6.687748755130689469e-13 -1.224646799147353207e-16 -1 -1.224646799147353454e-16 -250 3.061616997868383121e-14 -1.38777878078144536e-14 forward_v I I I I #
coedge $258 -1 $-1 $185 $185 $186 $259 forward $127 $-1 #
coedge $260 -1 $-1 $186 $186 $185 $259 reversed $129 $-1 #
coedge $-1 -1 $-1 $187 $187 $130 $188 forward $183 $-1 #
edge $-1 -1 $-1 $261 -3.141592653589793116 $261 3.141592653589793116 $130 $262 forward @7 unknown #
DXID-attrib $-1 -1 $-1 $-1 $132 @10 ASM ENTITY @1 2 #
loop $-1 -1 $-1 $-1 $263 $132 #
plane-surface $-1 -1 $-1 1119.128875268399952 5948.244695846096874 6.245698675651482458e-14 -1.224646799147353207e-16 -1 0 250 -3.061616997868383121e-14 0 forward_v I I I I #
coedge $-1 -1 $-1 $192 $192 $136 $194 reversed $133 $-1 #
coedge $-1 -1 $-1 $193 $193 $263 $264 reversed $135 $-1 #
edge $-1 -1 $-1 $265 -3.141592653589793116 $265 3.141592653589793116 $192 $266 forward @7 tangent #
coedge $-1 -1 $-1 $196 $137 $-1 $267 forward $91 $268 #
coedge $-1 -1 $-1 $137 $195 $137 $197 reversed $91 $269 #
edge $270 -1 $-1 $271 0 $272 1 $137 $273 forward @7 tangent #
pcurve $-1 -1 $-1 0 forward { exppc nubs 1 open 2 
	0 1 1 1 
	0 0 
	1 0 
	0 
	spline forward { ref 2 } I I I I 
	} 0 0 #
DXID-attrib $-1 -1 $-1 $-1 $139 @10 ASM ENTITY @1 2 #
loop $-1 -1 $-1 $-1 $274 $139 #
plane-surface $-1 -1 $-1 1119.128875268399952 5748.244695846096874 0 -1.224646799147353207e-16 -1 0 10 -1.224646799147353256e-15 0 forward_v I I I I #
loop $-1 -1 $-1 $-1 $275 $94 #
coedge $-1 -1 $-1 $203 $203 $142 $204 forward $140 $-1 #
edge $-1 -1 $-1 $276 -3.141592653589793116 $276 3.141592653589793116 $142 $277 forward @7 tangent #
DXID-attrib $-1 -1 $-1 $-1 $144 @10 ASM ENTITY @1 2 #
loop $-1 -1 $-1 $-1 $278 $144 #
plane-surface $-1 -1 $-1 1119.128875268399725 5748.514623148588726 -1.242014001808057747e-13 -1.224646799147353207e-16 1 -1.224646799147353207e-16 250 3.061616997868383121e-14 -3.749399456654644501e-30 forward_v I I I I #
coedge $-1 -1 $-1 $208 $208 $148 $210 reversed $145 $-1 #
coedge $-1 -1 $-1 $209 $209 $278 $279 reversed $147 $-1 #
edge $-1 -1 $-1 $280 -3.141592653589793116 $280 3.141592653589793116 $208 $281 forward @7 tangent #
DXID-attrib $-1 -1 $-1 $-1 $150 @10 ASM ENTITY @1 2 #
loop $-1 -1 $-1 $-1 $282 $150 #
plane-surface $-1 -1 $-1 1119.128875268399952 5348.244695846096874 6.245698675651482458e-14 -1.224646799147353207e-16 -1 0 250 -3.061616997868383121e-14 0 forward_v I I I I #
coedge $-1 -1 $-1 $214 $214 $154 $216 reversed $151 $-1 #
coedge $-1 -1 $-1 $215 $215 $282 $283 reversed $153 $-1 #
edge $-1 -1 $-1 $284 -3.141592653589793116 $284 3.141592653589793116 $214 $285 forward @7 tangent #
DXID-attrib $-1 -1 $-1 $-1 $156 @10 ASM ENTITY @1 2 #
loop $-1 -1 $-1 $-1 $286 $156 #
plane-surface $-1 -1 $-1 1118.9899397455506 5348.244695846096874 -8.126708744128829227e-13 -1.224646799147352961e-16 -1 -1.224646799147353454e-16 10 -1.224646799147353059e-15 1.491709520581732914e-31 forward_v I I I I #
coedge $-1 -1 $-1 $220 $220 $160 $222 forward $157 $-1 #
coedge $287 -1 $-1 $221 $221 $286 $288 forward $159 $-1 #
edge $-1 -1 $-1 $289 -3.141592653589793116 $289 3.141592653589793116 $160 $290 forward @7 unknown #
DXID-attrib $-1 -1 $-1 $-1 $162 @10 ASM ENTITY @1 3 #
face $291 -1 $-1 $292 $293 $41 $-1 $294 forward double out #
loop $-1 -1 $-1 $-1 $295 $162 #
spline-surface $-1 -1 $-1 forward { rotsur 
	intcurve reversed { exactcur full nurbs 3 open 2 
	0 3 1 3 
	-1080.437143587781748 10089.91649010167203 -9.062386313690431256e-14 1 
	-1321.869435254449172 10149.44774010167021 -9.062386313690431256e-14 1 
	-1520.306935254449172 10025.75495102391324 -9.062386313690431256e-14 1 
	-1528.244515998875386 10048.24469584609506 -9.062386313690431256e-14 1 
	0 
	
	null_surface 
	null_surface 
	nullbs 
	nullbs 
	I I 
	0 
	0 
	0 
	F 1 F 0 } F -1 F -0 
	1118.989939745550828 8567.535240683668235 -9.062386313690431256e-14 1.224646799147353207e-16 1 0 
	full nurbs 3 2 both open periodic none none 2 5 
	-1 3 -0 3 
	0 2 1.570796326794896558 2 3.141592653589793116 2 4.712388980384689674 2 6.283185307179586232 2 
	-1528.244515998875386 10048.24469584609506 -9.062386313690431256e-14 1 
	-1520.306935254449172 10025.75495102391324 -9.062386313690431256e-14 1 
	-1321.869435254449172 10149.44774010167021 -9.062386313690431256e-14 1 
	-1080.437143587781748 10089.91649010167203 -9.062386313690431256e-14 1 
	-1528.244515998874249 10048.24469584609506 2647.234455744425759 0.7071067811865475727 
	-1520.306935254448035 10025.75495102391324 2639.296875 0.7071067811865475727 
	-1321.869435254449172 10149.44774010167021 2440.859375 0.7071067811865475727 
	-1080.437143587781748 10089.91649010167203 2199.42708333333303 0.7071067811865475727 
	1118.989939745550828 10048.24469584609506 2647.234455744425759 1 
	1118.989939745550828 10025.75495102391142 2639.296875000000455 1 
	1118.989939745550828 10149.44774010167021 2440.859375000000455 1 
	1118.989939745550828 10089.91649010167021 2199.42708333333394 1 
	3766.224395489976814 10048.24469584609506 2647.234455744425759 0.7071067811865475727 
	3758.28681474555151 10025.75495102391142 2639.296875 0.7071067811865475727 
	3559.84931474555151 10149.44774010167021 2440.859375 0.7071067811865475727 
	3318.41702307888454 10089.91649010167021 2199.42708333333303 0.7071067811865475727 
	3766.224395489976814 10048.24469584609506 -9.062386313690431256e-14 1 
	3758.286814745551965 10025.75495102391142 -9.062386313690431256e-14 1 
	3559.849314745551965 10149.44774010167021 -9.062386313690431256e-14 1 
	3318.417023078884995 10089.91649010167021 -9.062386313690431256e-14 1 
	3766.224395489976814 10048.24469584609506 -2647.234455744425759 0.7071067811865475727 
	3758.28681474555151 10025.75495102391142 -2639.296875 0.7071067811865475727 
	3559.84931474555151 10149.44774010167021 -2440.859375 0.7071067811865475727 
	3318.41702307888454 10089.91649010167021 -2199.42708333333303 0.7071067811865475727 
	1118.989939745550828 10048.24469584609506 -2647.234455744425759 1 
	1118.989939745550828 10025.75495102391142 -2639.296875000000455 1 
	1118.989939745550828 10149.44774010167021 -2440.859375000000455 1 
	1118.989939745550828 10089.91649010167021 -2199.42708333333394 1 
	-1528.244515998874249 10048.24469584609506 -2647.234455744425759 0.7071067811865475727 
	-1520.306935254448035 10025.75495102391324 -2639.296875 0.7071067811865475727 
	-1321.869435254449172 10149.44774010167021 -2440.859375 0.7071067811865475727 
	-1080.437143587781748 10089.91649010167203 -2199.42708333333303 0.7071067811865475727 
	-1528.244515998875386 10048.24469584609506 -9.062386313690431256e-14 1 
	-1520.306935254449172 10025.75495102391324 -9.062386313690431256e-14 1 
	-1321.869435254449172 10149.44774010167021 -9.062386313690431256e-14 1 
	-1080.437143587781748 10089.91649010167203 -9.062386313690431256e-14 1 
	0.0002500000000000000052 
	
	0 
	0 
	0 
	0 
	0 
	0 
	} I I I I #
coedge $-1 -1 $-1 $296 $297 $298 $299 reversed $163 $300 #
coedge $-1 -1 $-1 $230 $165 $167 $236 forward $111 $301 #
coedge $-1 -1 $-1 $165 $230 $296 $302 reversed $111 $303 #
coedge $-1 -1 $-1 $229 $228 $165 $231 forward $111 $304 #
edge $305 -1 $-1 $241 0 $306 1 $230 $307 forward @7 tangent #
pcurve $-1 -1 $-1 0 forward { exppc nubs 1 open 2 
	-1 1 -0 1 
	-1 0 
	0 0 
	0 
	spline forward { ref 4 } I I I I 
	} 0 0 #
coedge $-1 -1 $-1 $308 $309 $166 $234 reversed $310 $311 #
edge $-1 -1 $-1 $240 0 $240 6.283185307179586232 $233 $312 forward @7 tangent #
pcurve $-1 -1 $-1 0 forward { exppc nubs 1 periodic 2 
	0 1 6.283185307179586232 1 
	-0 0 
	-0 6.283185307179586232 
	0 
	spline forward { ref 0 } I I I I 
	} 0 0 #
edge $-1 -1 $-1 $241 0 $241 6.283185307179586232 $228 $313 forward @7 unknown #
pcurve $-1 -1 $-1 0 forward { exppc nubs 1 periodic 2 
	-6.283185307179586232 1 -0 1 
	-1 6.283185307179586232 
	-1 0 
	0 
	spline forward { ref 0 } I I I I 
	} 0 0 #
pcurve $-1 -1 $-1 0 forward { exppc nubs 1 open 2 
	0 1 1 1 
	0 6.283185307179586232 
	-1 6.283185307179586232 
	0 
	spline forward { ref 0 } I I I I 
	} 0 0 #
DXID-attrib $-1 -1 $-1 $-1 $169 @10 ASM ENTITY @1 8 #
vertex $-1 -1 $-1 $169 $314 #
vertex $-1 -1 $-1 $169 $315 #
intcurve-curve $-1 -1 $-1 forward { ref 1 } F 0 F 1 #
DXID-attrib $-1 -1 $-1 $-1 $172 @10 ASM ENTITY @1 3 #
face $316 -1 $-1 $-1 $317 $43 $-1 $318 reversed single #
loop $-1 -1 $-1 $319 $320 $172 #
cone-surface $-1 -1 $-1 1118.989939745550828 7898.244695846096874 -4.549640018195583406e-13 1.224646799147353207e-16 1 1.224646799147353454e-16 -808.375 9.899738562607418632e-14 -4.487382687656804592e-14 1 I I 0 1 808.375 forward I I I I #
loop $-1 -1 $-1 $-1 $321 $115 #
edge $-1 -1 $-1 $322 -3.141592653589793116 $322 3.141592653589793116 $176 $323 forward @7 unknown #
vertex $-1 -1 $-1 $178 $324 #
ellipse-curve $-1 -1 $-1 1118.989939745550828 6148.244695846096874 -6.692771916703451023e-13 1.224646799147353207e-16 1 1.224646799147353454e-16 -783.375 9.593576862820579499e-14 -4.348604809578660024e-14 1 I I #
ATTRIB_CUSTOM-attrib $-1 -1 $-1 $-1 $179 @17 sketch_attrib_def 1 1 2 163 0 1 1 1 0 #
coedge $-1 -1 $-1 $253 $179 $180 $256 forward $121 $325 #
coedge $326 -1 $-1 $179 $252 $179 $254 forward $121 $327 #
edge $-1 -1 $-1 $328 0 $329 1 $179 $330 forward @7 tangent #
pcurve $-1 -1 $-1 0 forward { exppc nubs 1 open 2 
	-1 1 -0 1 
	-1 0 
	0 0 
	0 
	spline forward { ref 6 } I I I I 
	} 0 0 #
edge $-1 -1 $-1 $328 -1.570796326794896558 $328 4.712388980384689674 $252 $331 forward @7 unknown #
vertex $-1 -1 $-1 $181 $332 #
ATTRIB_CUSTOM-attrib $-1 -1 $-1 $-1 $185 @17 sketch_attrib_def 1 1 2 176 0 0 1 1 0 #
edge $-1 -1 $-1 $333 -3.141592653589793116 $333 3.141592653589793116 $185 $334 forward @7 unknown #
ATTRIB_CUSTOM-attrib $-1 -1 $-1 $-1 $186 @17 sketch_attrib_def 1 1 2 176 0 0 1 1 0 #
vertex $-1 -1 $-1 $188 $335 #
ellipse-curve $-1 -1 $-1 1118.989939745550828 6523.244695846096874 -6.687748755130689469e-13 1.224646799147353207e-16 1 1.224646799147353454e-16 -785.015935103027914 9.613672522035896385e-14 -4.35771382924514498e-14 1 I I #
coedge $-1 -1 $-1 $263 $263 $193 $264 forward $190 $-1 #
edge $-1 -1 $-1 $336 -3.141592653589793116 $336 3.141592653589793116 $263 $337 forward @7 unknown #
vertex $-1 -1 $-1 $194 $338 #
ellipse-curve $-1 -1 $-1 1119.128875268399952 6148.244695846096874 6.245698675651482458e-14 -1.224646799147353207e-16 -1 0 799.9999999999998863 -9.797174393178824474e-14 0 1 I I #
edge $339 -1 $-1 $272 -1.570796326794896558 $272 4.712388980384689674 $195 $340 forward @7 unknown #
pcurve $-1 -1 $-1 0 forward { exppc nubs 1 periodic 2 
	-1.570796326794896558 1 4.712388980384689674 1 
	1 0 
	1 6.283185307179586232 
	0 
	spline forward { ref 2 } I I I I 
	} 0 0 #
pcurve $-1 -1 $-1 0 forward { exppc nubs 1 open 2 
	-1 1 -0 1 
	1 6.283185307179586232 
	0 6.283185307179586232 
	0 
	spline forward { ref 2 } I I I I 
	} 0 0 #
DXID-attrib $-1 -1 $-1 $-1 $197 @10 ASM ENTITY @1 1 #
vertex $-1 -1 $-1 $197 $341 #
vertex $-1 -1 $-1 $197 $342 #
intcurve-curve $-1 -1 $-1 forward { ref 3 } I I #
coedge $-1 -1 $-1 $274 $274 $275 $343 reversed $200 $-1 #
coedge $-1 -1 $-1 $275 $275 $274 $343 forward $202 $-1 #
vertex $-1 -1 $-1 $204 $344 #
ellipse-curve $-1 -1 $-1 1119.128875268399952 5948.244695846096874 6.245698675651482458e-14 -1.224646799147353207e-16 -1 0 1150.000000000000227 -1.408343819019456476e-13 0 1 I I #
coedge $-1 -1 $-1 $278 $278 $209 $279 forward $206 $-1 #
edge $-1 -1 $-1 $345 -3.141592653589793116 $345 3.141592653589793116 $278 $346 forward @7 unknown #
vertex $-1 -1 $-1 $210 $347 #
ellipse-curve $-1 -1 $-1 1119.128875268399725 5548.514623148588726 -9.970846419785874506e-14 -1.224646799147353207e-16 1 -1.224646799147353207e-16 799.9999999999998863 9.797174393178824474e-14 -1.199807826129485876e-29 1 I I #
coedge $-1 -1 $-1 $282 $282 $215 $283 forward $212 $-1 #
edge $-1 -1 $-1 $348 -3.141592653589793116 $348 3.141592653589793116 $282 $349 forward @7 unknown #
vertex $-1 -1 $-1 $216 $350 #
ellipse-curve $-1 -1 $-1 1119.128875268399952 5548.244695846096874 6.245698675651482458e-14 -1.224646799147353207e-16 -1 0 799.9999999999998863 -9.797174393178824474e-14 0 1 I I #
coedge $351 -1 $-1 $286 $286 $221 $288 reversed $218 $-1 #
ATTRIB_CUSTOM-attrib $-1 -1 $-1 $-1 $221 @17 sketch_attrib_def 1 1 2 222 0 0 1 1 0 #
edge $-1 -1 $-1 $352 -3.141592653589793116 $352 3.141592653589793116 $221 $353 forward @7 unknown #
vertex $-1 -1 $-1 $222 $354 #
ellipse-curve $-1 -1 $-1 1118.989939745548782 -8651.755304153903126 -2.573732870894333684e-12 -1.224646799147352961e-16 -1 -1.224646799147353454e-16 807.8216033312957052 -9.892961408017539958e-14 1.205035176620893853e-29 1 I I #
DXID-attrib $-1 -1 $-1 $-1 $224 @10 ASM ENTITY @1 4 #
face $355 -1 $-1 $356 $357 $41 $-1 $358 forward double out #
loop $-1 -1 $-1 $-1 $359 $224 #
spline-surface $-1 -1 $-1 forward { rotsur 
	intcurve reversed { exactcur full nurbs 3 open 2 
	0 3 1 3 
	-1528.244515998875386 10048.24469584609506 -9.062386313690431256e-14 1 
	-1546.765268587781748 10099.83836510167203 -9.062386313690431256e-14 1 
	-333.6507256266611421 10406.09369455164051 -9.062386313690431256e-14 1 
	143.9221708538991606 10813.55206825718778 -9.062386313690431256e-14 1 
	0 
	
	null_surface 
	null_surface 
	nullbs 
	nullbs 
	I I 
	0 
	0 
	0 
	F 1 F 0 } F -1 F -0 
	1118.989939745550828 8567.535240683668235 -9.062386313690431256e-14 1.224646799147353207e-16 1 0 
	full nurbs 3 2 both open periodic none none 2 5 
	-1 3 -0 3 
	0 2 1.570796326794896558 2 3.141592653589793116 2 4.712388980384689674 2 6.283185307179586232 2 
	143.9221708538991606 10813.55206825718778 -9.062386313690431256e-14 1 
	-333.6507256266611421 10406.09369455164051 -9.062386313690431256e-14 1 
	-1546.765268587781748 10099.83836510167203 -9.062386313690431256e-14 1 
	-1528.244515998875386 10048.24469584609506 -9.062386313690431256e-14 1 
	143.9221708538991606 10813.55206825718778 975.0677688916525767 0.7071067811865475727 
	-333.6507256266611421 10406.09369455164051 1452.640665372212879 0.7071067811865475727 
	-1546.765268587781748 10099.83836510167203 2665.75520833333394 0.7071067811865475727 
	-1528.244515998874249 10048.24469584609506 2647.234455744425759 0.7071067811865475727 
	1118.989939745550828 10813.55206825718778 975.0677688916526904 1 
	1118.989939745550828 10406.09369455164051 1452.640665372213107 1 
	1118.989939745550828 10099.83836510167021 2665.755208333334394 1 
	1118.989939745550828 10048.24469584609506 2647.234455744425759 1 
	2094.057708637204087 10813.55206825718778 975.0677688916525767 0.7071067811865475727 
	2571.630605117763935 10406.09369455164051 1452.640665372212879 0.7071067811865475727 
	3784.745148078884995 10099.83836510167021 2665.75520833333394 0.7071067811865475727 
	3766.224395489976814 10048.24469584609506 2647.234455744425759 0.7071067811865475727 
	2094.057708637204087 10813.55206825718778 -9.062386313690431256e-14 1 
	2571.630605117764389 10406.09369455164051 -9.062386313690431256e-14 1 
	3784.745148078885904 10099.83836510167021 -9.062386313690431256e-14 1 
	3766.224395489976814 10048.24469584609506 -9.062386313690431256e-14 1 
	2094.057708637204087 10813.55206825718778 -975.0677688916525767 0.7071067811865475727 
	2571.630605117763935 10406.09369455164051 -1452.640665372212879 0.7071067811865475727 
	3784.745148078884995 10099.83836510167021 -2665.75520833333394 0.7071067811865475727 
	3766.224395489976814 10048.24469584609506 -2647.234455744425759 0.7071067811865475727 
	1118.989939745550828 10813.55206825718778 -975.0677688916526904 1 
	1118.989939745550828 10406.09369455164051 -1452.640665372213107 1 
	1118.989939745550828 10099.83836510167021 -2665.755208333334394 1 
	1118.989939745550828 10048.24469584609506 -2647.234455744425759 1 
	143.9221708538991606 10813.55206825718778 -975.0677688916525767 0.7071067811865475727 
	-333.6507256266611421 10406.09369455164051 -1452.640665372212879 0.7071067811865475727 
	-1546.765268587781748 10099.83836510167203 -2665.75520833333394 0.7071067811865475727 
	-1528.244515998874249 10048.24469584609506 -2647.234455744425759 0.7071067811865475727 
	143.9221708538991606 10813.55206825718778 -9.062386313690431256e-14 1 
	-333.6507256266611421 10406.09369455164051 -9.062386313690431256e-14 1 
	-1546.765268587781748 10099.83836510167203 -9.062386313690431256e-14 1 
	-1528.244515998875386 10048.24469584609506 -9.062386313690431256e-14 1 
	0.0002500000000000000052 
	
	0 
	0 
	0 
	0 
	0 
	0 
	} I I I I #
coedge $-1 -1 $-1 $360 $361 $362 $363 reversed $225 $364 #
coedge $-1 -1 $-1 $298 $227 $229 $302 forward $163 $365 #
coedge $-1 -1 $-1 $227 $298 $360 $366 reversed $163 $367 #
coedge $-1 -1 $-1 $297 $296 $227 $299 forward $163 $368 #
edge $369 -1 $-1 $306 0 $370 1 $298 $371 forward @7 tangent #
pcurve $-1 -1 $-1 0 forward { exppc nubs 1 open 2 
	-1 1 -0 1 
	-1 0 
	0 0 
	0 
	spline forward { ref 8 } I I I I 
	} 0 0 #
pcurve $-1 -1 $-1 0 forward { exppc nubs 1 periodic 2 
	0 1 6.283185307179586232 1 
	-0 0 
	-0 6.283185307179586232 
	0 
	spline forward { ref 4 } I I I I 
	} 0 0 #
edge $-1 -1 $-1 $306 0 $306 6.283185307179586232 $296 $372 forward @7 tangent #
pcurve $-1 -1 $-1 0 forward { exppc nubs 1 periodic 2 
	-6.283185307179586232 1 -0 1 
	-1 6.283185307179586232 
	-1 0 
	0 
	spline forward { ref 4 } I I I I 
	} 0 0 #
pcurve $-1 -1 $-1 0 forward { exppc nubs 1 open 2 
	0 1 1 1 
	0 6.283185307179586232 
	-1 6.283185307179586232 
	0 
	spline forward { ref 4 } I I I I 
	} 0 0 #
DXID-attrib $-1 -1 $-1 $-1 $231 @10 ASM ENTITY @2 11 #
vertex $-1 -1 $-1 $231 $373 #
intcurve-curve $-1 -1 $-1 forward { ref 5 } F 0 F 1 #
coedge $-1 -1 $-1 $374 $233 $309 $375 reversed $310 $376 #
coedge $-1 -1 $-1 $233 $374 $308 $375 forward $310 $377 #
loop $-1 -1 $-1 $-1 $308 $378 #
pcurve $-1 -1 $-1 0 forward { exppc nubs 1 periodic 2 
	-6.283185307179586232 1 -0 1 
	-1 6.283185307179586232 
	-1 0 
	0 
	spline forward { rotsur 
	intcurve reversed { exactcur full nurbs 3 open 2 
	0 3 1 3 
	305.3179638150197661 8839.098943257187784 -9.062386313690431256e-14 1 
	305.3179638150197661 8604.942683164133996 -9.062386313690431256e-14 1 
	89.02110900112461422 8406.505183164133996 -9.062386313690431256e-14 1 
	-145.1351006266611421 8406.505183164133996 -9.062386313690431256e-14 1 
	0 
	
	null_surface 
	null_surface 
	nullbs 
	nullbs 
	I I 
	0 
	0 
	0 
	F 1 F 0 } F -1 F -0 
	1118.989939745550828 8567.535240683668235 -9.062386313690431256e-14 1.224646799147353207e-16 1 0 
	full nurbs 3 2 both open periodic none none 2 5 
	-1 3 -0 3 
	0 2 1.570796326794896558 2 3.141592653589793116 2 4.712388980384689674 2 6.283185307179586232 2 
	-145.1351006266611421 8406.505183164133996 -9.062386313690431256e-14 1 
	89.02110900112461422 8406.505183164133996 -9.062386313690431256e-14 1 
	305.3179638150197661 8604.942683164133996 -9.062386313690431256e-14 1 
	305.3179638150197661 8839.098943257187784 -9.062386313690431256e-14 1 
	-145.1351006266611421 8406.505183164133996 1264.125040372212879 0.7071067811865475727 
	89.02110900112575109 8406.505183164133996 1029.968830744425532 0.7071067811865475727 
	305.3179638150197661 8604.942683164133996 813.6719759305317439 0.7071067811865475727 
	305.3179638150197661 8839.098943257187784 813.6719759305317439 0.7071067811865475727 
	1118.989939745550828 8406.505183164133996 1264.125040372213107 1 
	1118.989939745550828 8406.505183164133996 1029.968830744425759 1 
	1118.989939745550828 8604.942683164133996 813.6719759305319712 1 
	1118.989939745550828 8839.098943257187784 813.6719759305319712 1 
	2383.11498011776348 8406.505183164133996 1264.125040372212879 0.7071067811865475727 
	2148.958770489976814 8406.505183164133996 1029.968830744425532 0.7071067811865475727 
	1932.661915676082572 8604.942683164133996 813.6719759305317439 0.7071067811865475727 
	1932.661915676082572 8839.098943257187784 813.6719759305317439 0.7071067811865475727 
	2383.114980117764389 8406.505183164133996 -9.062386313690431256e-14 1 
	2148.958770489976814 8406.505183164133996 -9.062386313690431256e-14 1 
	1932.661915676082572 8604.942683164133996 -9.062386313690431256e-14 1 
	1932.661915676083481 8839.098943257187784 -9.062386313690431256e-14 1 
	2383.11498011776348 8406.505183164133996 -1264.125040372212879 0.7071067811865475727 
	2148.958770489976814 8406.505183164133996 -1029.968830744425532 0.7071067811865475727 
	1932.661915676082572 8604.942683164133996 -813.6719759305317439 0.7071067811865475727 
	1932.661915676082572 8839.098943257187784 -813.6719759305317439 0.7071067811865475727 
	1118.989939745550828 8406.505183164133996 -1264.125040372213107 1 
	1118.989939745550828 8406.505183164133996 -1029.968830744425759 1 
	1118.989939745550828 8604.942683164133996 -813.6719759305319712 1 
	1118.989939745550828 8839.098943257187784 -813.6719759305319712 1 
	-145.1351006266611421 8406.505183164133996 -1264.125040372212879 0.7071067811865475727 
	89.02110900112575109 8406.505183164133996 -1029.968830744425532 0.7071067811865475727 
	305.3179638150197661 8604.942683164133996 -813.6719759305317439 0.7071067811865475727 
	305.3179638150197661 8839.098943257187784 -813.6719759305317439 0.7071067811865475727 
	-145.1351006266611421 8406.505183164133996 -9.062386313690431256e-14 1 
	89.02110900112461422 8406.505183164133996 -9.062386313690431256e-14 1 
	305.3179638150197661 8604.942683164133996 -9.062386313690431256e-14 1 
	305.3179638150197661 8839.098943257187784 -9.062386313690431256e-14 1 
	0.0002500000000000000052 
	
	0 
	0 
	0 
	0 
	0 
	0 
	} I I I I 
	} 0 0 #
ellipse-curve $-1 -1 $-1 1118.989939745550828 8406.505183164133996 -9.062386313690431256e-14 1.224646799147353207e-16 1 0 -1264.125040372213107 1.548106684413849477e-13 0 1 I I #
ellipse-curve $-1 -1 $-1 1118.989939745550828 9251.848701023911417 -9.062386313690431256e-14 1.224646799147353207e-16 1 0 -1360.697997411092501 1.666374447135707739e-13 0 1 I I #
point $-1 -1 $-1 -145.1351006266611421 8406.505183164133996 -9.062386313690431256e-14 #
point $-1 -1 $-1 -241.7080576655405366 9251.848701023911417 -9.062386313690431256e-14 #
DXID-attrib $-1 -1 $-1 $-1 $244 @10 ASM ENTITY @1 4 #
loop $-1 -1 $-1 $-1 $379 $244 #
plane-surface $-1 -1 $-1 1118.989939745550828 10748.24469584609687 -1.080193066241967955e-13 -1.224646799147353207e-16 -1 -1.224646799147353454e-16 -250 3.061616997868383121e-14 -1.38777878078144536e-14 forward_v I I I I #
loop $-1 -1 $-1 $-1 $380 $172 #
coedge $-1 -1 $-1 $320 $320 $321 $381 forward $245 $-1 #
coedge $-1 -1 $-1 $321 $321 $320 $381 reversed $247 $-1 #
vertex $-1 -1 $-1 $248 $382 #
ellipse-curve $-1 -1 $-1 1118.989939745550828 10723.24469584609687 -1.090012810604309286e-13 1.224646799147353207e-16 1 1.224646799147353454e-16 -783.375 9.593576862820579499e-14 -4.348604809578660024e-14 1 I I #
point $-1 -1 $-1 1902.3649397455506 6148.244695846096874 -7.217269122027643096e-13 #
pcurve $-1 -1 $-1 0 forward { exppc nubs 1 periodic 2 
	-1.570796326794896558 1 4.712388980384689674 1 
	-0 0 
	-0 6.283185307179586232 
	0 
	spline forward { ref 6 } I I I I 
	} 0 0 #
ATTRIB_CUSTOM-attrib $-1 -1 $-1 $-1 $253 @17 sketch_attrib_def 1 1 2 163 0 1 1 1 0 #
pcurve $-1 -1 $-1 0 forward { exppc nubs 1 open 2 
	0 1 1 1 
	0 6.283185307179586232 
	-1 6.283185307179586232 
	0 
	spline forward { ref 6 } I I I I 
	} 0 0 #
vertex $-1 -1 $-1 $256 $383 #
vertex $-1 -1 $-1 $254 $384 #
intcurve-curve $-1 -1 $-1 forward { ref 7 } F 0 F 1 #
ellipse-curve $-1 -1 $-1 1118.989939745550828 10898.24469584609687 -9.062386313690431256e-14 1.224646798113377441e-16 1 0 -808.377466474934181 9.899768759855322359e-14 -4.487396379343112534e-14 1 I I #
point $-1 -1 $-1 1118.989939745550828 10901.82324329271978 -9.062386313690431256e-14 #
vertex $-1 -1 $-1 $259 $385 #
ellipse-curve $-1 -1 $-1 1118.989939745550828 6148.244695846096874 -7.146991304810947032e-13 -1.224646799147353207e-16 -1 -1.224646799147353454e-16 -785.015935103027914 9.613672522035896385e-14 -4.35771382924514498e-14 1 I I #
point $-1 -1 $-1 1904.005874848578969 6523.244695846096874 -5.290610120002586595e-13 #
vertex $-1 -1 $-1 $264 $386 #
ellipse-curve $-1 -1 $-1 1119.128875268399952 5948.244695846096874 6.245698675651482458e-14 -1.224646799147353207e-16 -1 0 999.9999999999998863 -1.224646799147352996e-13 0 1 I I #
point $-1 -1 $-1 319.1288752684000656 6148.244695846096874 -3.551475717527341385e-14 #
DXID-attrib $-1 -1 $-1 $-1 $267 @10 ASM ENTITY @1 2 #
ellipse-curve $-1 -1 $-1 1118.989939745550828 6523.244695846096874 -6.457353754494825828e-13 1.224646799147353207e-16 1 1.224646799147353454e-16 -125 1.530808498934191561e-14 0 1 I I #
point $-1 -1 $-1 1118.989939745550828 8023.244695846096874 -6.457353754494825828e-13 #
point $-1 -1 $-1 1118.989939745550828 6523.244695846096874 -125.0000000000006537 #
edge $-1 -1 $-1 $387 -3.141592653589793116 $387 3.141592653589793116 $274 $388 forward @7 tangent #
point $-1 -1 $-1 -30.87112473160019022 5948.244695846096874 -7.837739514543081036e-14 #
vertex $-1 -1 $-1 $279 $389 #
ellipse-curve $-1 -1 $-1 1119.128875268399725 5748.514623148588726 -1.242014001808057747e-13 -1.224646799147353207e-16 1 -1.224646799147353207e-16 999.9999999999998863 1.224646799147352996e-13 -1.49975978266185724e-29 1 I I #
point $-1 -1 $-1 319.1288752683998382 5548.514623148588726 1.845086301061813293e-13 #
vertex $-1 -1 $-1 $283 $390 #
ellipse-curve $-1 -1 $-1 1119.128875268399952 5348.244695846096874 6.245698675651482458e-14 -1.224646799147353207e-16 -1 0 999.9999999999998863 -1.224646799147352996e-13 0 1 I I #
point $-1 -1 $-1 319.1288752684000656 5548.244695846096874 -3.551475717527341385e-14 #
ATTRIB_CUSTOM-attrib $-1 -1 $-1 $-1 $286 @17 sketch_attrib_def 1 1 2 222 0 0 1 1 0 #
vertex $-1 -1 $-1 $288 $391 #
ellipse-curve $-1 -1 $-1 1118.9899397455506 5348.244695846096874 -8.592273520880386817e-13 -1.224646799147352961e-16 -1 -1.224646799147353454e-16 807.8216033312957052 -9.892961408017539958e-14 1.205035176620893853e-29 1 I I #
point $-1 -1 $-1 311.16833641425319 -8651.755304153903126 -2.67266248497450921e-12 #
DXID-attrib $-1 -1 $-1 $-1 $292 @10 ASM ENTITY @1 5 #
face $392 -1 $-1 $378 $393 $41 $-1 $394 forward double out #
loop $-1 -1 $-1 $-1 $395 $292 #
spline-surface $-1 -1 $-1 forward { rotsur 
	intcurve reversed { exactcur full nurbs 3 open 2 
	0 3 1 3 
	143.9221708538991606 10813.55206825718778 -9.062386313690431256e-14 1 
	169.0576077066714333 10834.71881566827869 -9.062386313690431256e-14 1 
	225.2815660400051456 10915.41661121830839 -9.062386313690431256e-14 1 
	310.6096506677931757 10917.40110733494657 -9.062386313690431256e-14 1 
	0 
	
	null_surface 
	null_surface 
	nullbs 
	nullbs 
	I I 
	0 
	0 
	0 
	F 1 F 0 } F -1 F -0 
	1118.989939745550828 8567.535240683668235 -9.062386313690431256e-14 1.224646799147353207e-16 1 0 
	full nurbs 3 2 both open periodic none none 2 5 
	-1 3 -0 3 
	0 2 1.570796326794896558 2 3.141592653589793116 2 4.712388980384689674 2 6.283185307179586232 2 
	310.6096506677931757 10917.40110733494657 -9.062386313690431256e-14 1 
	225.2815660400051456 10915.41661121830839 -9.062386313690431256e-14 1 
	169.0576077066714333 10834.71881566827869 -9.062386313690431256e-14 1 
	143.9221708538991606 10813.55206825718778 -9.062386313690431256e-14 1 
	310.6096506677931757 10917.40110733494657 808.3802890777587891 0.7071067811865475727 
	225.2815660400051456 10915.41661121830839 893.7083737055459096 0.7071067811865475727 
	169.0576077066714333 10834.71881566827869 949.9323320388795082 0.7071067811865475727 
	143.9221708538991606 10813.55206825718778 975.0677688916525767 0.7071067811865475727 
	1118.989939745550828 10917.40110733494657 808.3802890777589027 1 
	1118.989939745550828 10915.41661121830839 893.7083737055462507 1 
	1118.989939745550828 10834.71881566827869 949.9323320388796219 1 
	1118.989939745550828 10813.55206825718778 975.0677688916526904 1 
	1927.370228823310299 10917.40110733494657 808.3802890777587891 0.7071067811865475727 
	2012.698313451096965 10915.41661121830839 893.7083737055459096 0.7071067811865475727 
	2068.922271784430905 10834.71881566827869 949.9323320388795082 0.7071067811865475727 
	2094.057708637204087 10813.55206825718778 975.0677688916525767 0.7071067811865475727 
	1927.370228823310299 10917.40110733494657 -9.062386313690431256e-14 1 
	2012.698313451098329 10915.41661121830839 -9.062386313690431256e-14 1 
	2068.922271784430905 10834.71881566827869 -9.062386313690431256e-14 1 
	2094.057708637204087 10813.55206825718778 -9.062386313690431256e-14 1 
	1927.370228823310299 10917.40110733494657 -808.3802890777587891 0.7071067811865475727 
	2012.698313451096965 10915.41661121830839 -893.7083737055459096 0.7071067811865475727 
	2068.922271784430905 10834.71881566827869 -949.9323320388795082 0.7071067811865475727 
	2094.057708637204087 10813.55206825718778 -975.0677688916525767 0.7071067811865475727 
	1118.989939745550828 10917.40110733494657 -808.3802890777589027 1 
	1118.989939745550828 10915.41661121830839 -893.7083737055462507 1 
	1118.989939745550828 10834.71881566827869 -949.9323320388796219 1 
	1118.989939745550828 10813.55206825718778 -975.0677688916526904 1 
	310.6096506677931757 10917.40110733494657 -808.3802890777587891 0.7071067811865475727 
	225.2815660400051456 10915.41661121830839 -893.7083737055459096 0.7071067811865475727 
	169.0576077066714333 10834.71881566827869 -949.9323320388795082 0.7071067811865475727 
	143.9221708538991606 10813.55206825718778 -975.0677688916525767 0.7071067811865475727 
	310.6096506677931757 10917.40110733494657 -9.062386313690431256e-14 1 
	225.2815660400051456 10915.41661121830839 -9.062386313690431256e-14 1 
	169.0576077066714333 10834.71881566827869 -9.062386313690431256e-14 1 
	143.9221708538991606 10813.55206825718778 -9.062386313690431256e-14 1 
	0.0002500000000000000052 
	
	0 
	0 
	0 
	0 
	0 
	0 
	} I I I I #
coedge $-1 -1 $-1 $396 $397 $398 $399 reversed $293 $400 #
coedge $-1 -1 $-1 $362 $295 $297 $366 forward $225 $401 #
coedge $-1 -1 $-1 $295 $362 $396 $402 reversed $225 $403 #
coedge $-1 -1 $-1 $361 $360 $295 $363 forward $225 $404 #
edge $405 -1 $-1 $370 0 $406 1 $362 $407 forward @7 tangent #
pcurve $-1 -1 $-1 0 forward { exppc nubs 1 open 2 
	-1 1 -0 1 
	-1 0 
	0 0 
	0 
	spline forward { ref 12 } I I I I 
	} 0 0 #
pcurve $-1 -1 $-1 0 forward { exppc nubs 1 periodic 2 
	0 1 6.283185307179586232 1 
	-0 0 
	-0 6.283185307179586232 
	0 
	spline forward { ref 8 } I I I I 
	} 0 0 #
edge $-1 -1 $-1 $370 0 $370 6.283185307179586232 $360 $408 forward @7 tangent #
pcurve $-1 -1 $-1 0 forward { exppc nubs 1 periodic 2 
	-6.283185307179586232 1 -0 1 
	-1 6.283185307179586232 
	-1 0 
	0 
	spline forward { ref 8 } I I I I 
	} 0 0 #
pcurve $-1 -1 $-1 0 forward { exppc nubs 1 open 2 
	0 1 1 1 
	0 6.283185307179586232 
	-1 6.283185307179586232 
	0 
	spline forward { ref 8 } I I I I 
	} 0 0 #
DXID-attrib $-1 -1 $-1 $-1 $299 @10 ASM ENTITY @2 13 #
vertex $-1 -1 $-1 $299 $409 #
intcurve-curve $-1 -1 $-1 forward { ref 9 } F 0 F 1 #
ellipse-curve $-1 -1 $-1 1118.989939745550828 9522.385118985032022 -9.062386313690431256e-14 1.224646799147353207e-16 1 0 -1610.729166666667197 1.972574318251617838e-13 0 1 I I #
point $-1 -1 $-1 -491.7392269211154598 9522.385118985032022 -9.062386313690431256e-14 #
coedge $-1 -1 $-1 $309 $308 $410 $411 forward $310 $412 #
edge $413 -1 $-1 $414 0 $240 1 $309 $415 forward @7 tangent #
pcurve $-1 -1 $-1 0 forward { exppc nubs 1 open 2 
	-1 1 -0 1 
	-1 0 
	0 0 
	0 
	spline forward { ref 28 } I I I I 
	} 0 0 #
pcurve $-1 -1 $-1 0 forward { exppc nubs 1 open 2 
	0 1 1 1 
	0 6.283185307179586232 
	-1 6.283185307179586232 
	0 
	spline forward { ref 28 } I I I I 
	} 0 0 #
face $416 -1 $-1 $-1 $310 $41 $-1 $417 forward double out #
coedge $-1 -1 $-1 $379 $379 $380 $418 forward $317 $-1 #
coedge $-1 -1 $-1 $380 $380 $379 $418 reversed $319 $-1 #
edge $-1 -1 $-1 $419 -3.141592653589793116 $419 3.141592653589793116 $320 $420 forward @7 unknown #
point $-1 -1 $-1 1902.364939745551737 10723.24469584609687 -1.614510015928501233e-13 #
point $-1 -1 $-1 1118.989939745550828 10898.24469584609687 -808.377466474934181 #
point $-1 -1 $-1 1118.989939745550828 12084.6533315104025 -9.062386313690431256e-14 #
point $-1 -1 $-1 1904.005874848578969 6148.244695846096874 -5.749852669682843148e-13 #
point $-1 -1 $-1 119.128875268400094 5948.244695846096874 -6.000769315822047503e-14 #
vertex $-1 -1 $-1 $343 $421 #
ellipse-curve $-1 -1 $-1 1119.128875268399952 5748.244695846096874 6.245698675651482458e-14 1.224646799147353207e-16 1 0 1150.000000000000227 -1.408343819019456476e-13 0 1 I I #
point $-1 -1 $-1 119.1288752683998098 5748.514623148588726 1.600156941232342997e-13 #
point $-1 -1 $-1 119.128875268400094 5348.244695846096874 -6.000769315822047503e-14 #
point $-1 -1 $-1 311.1683364142548953 5348.244695846096874 -9.581569661682141065e-13 #
DXID-attrib $-1 -1 $-1 $-1 $356 @10 ASM ENTITY @1 6 #
loop $-1 -1 $-1 $422 $410 $356 #
cone-surface $-1 -1 $-1 1118.989939745550828 9878.250025296067179 -9.062386313690431256e-14 1.224646799147353207e-16 1 0 -811.0261325041454938 9.932205571960587457e-14 0 1 I I 0.00254615031034443294 -0.9999967585540452397 811.0261325041454938 forward I I I I #
coedge $-1 -1 $-1 $423 $424 $425 $426 reversed $357 $427 #
coedge $-1 -1 $-1 $398 $359 $361 $402 forward $293 $428 #
coedge $-1 -1 $-1 $359 $398 $423 $429 reversed $293 $430 #
coedge $-1 -1 $-1 $397 $396 $359 $399 forward $293 $431 #
edge $432 -1 $-1 $406 0 $433 1 $398 $434 forward @7 tangent #
pcurve $-1 -1 $-1 0 forward { exppc nubs 1 open 2 
	-1 1 -0 1 
	-1 0 
	0 0 
	0 
	spline forward { ref 21 } I I I I 
	} 0 0 #
pcurve $-1 -1 $-1 0 forward { exppc nubs 1 periodic 2 
	0 1 6.283185307179586232 1 
	-0 0 
	-0 6.283185307179586232 
	0 
	spline forward { ref 12 } I I I I 
	} 0 0 #
edge $-1 -1 $-1 $406 0 $406 6.283185307179586232 $396 $435 forward @7 tangent #
pcurve $-1 -1 $-1 0 forward { exppc nubs 1 periodic 2 
	-6.283185307179586232 1 -0 1 
	-1 6.283185307179586232 
	-1 0 
	0 
	spline forward { ref 12 } I I I I 
	} 0 0 #
pcurve $-1 -1 $-1 0 forward { exppc nubs 1 open 2 
	0 1 1 1 
	0 6.283185307179586232 
	-1 6.283185307179586232 
	0 
	spline forward { ref 12 } I I I I 
	} 0 0 #
DXID-attrib $-1 -1 $-1 $-1 $363 @10 ASM ENTITY @2 15 #
vertex $-1 -1 $-1 $363 $436 #
intcurve-curve $-1 -1 $-1 forward { ref 13 } F 0 F 1 #
ellipse-curve $-1 -1 $-1 1118.989939745550828 10089.91649010167021 -9.062386313690431256e-14 1.224646799147353207e-16 1 0 -2199.42708333333394 2.69352133756216626e-13 0 1 I I #
point $-1 -1 $-1 -1080.437143587781748 10089.91649010167203 -9.062386313690431256e-14 #
coedge $-1 -1 $-1 $410 $410 $374 $411 reversed $393 $-1 #
edge $-1 -1 $-1 $414 0 $414 6.283185307179586232 $374 $437 forward @7 tangent #
pcurve $-1 -1 $-1 0 forward { exppc nubs 1 periodic 2 
	0 1 6.283185307179586232 1 
	-0 0 
	-0 6.283185307179586232 
	0 
	spline forward { ref 28 } I I I I 
	} 0 0 #
DXID-attrib $-1 -1 $-1 $-1 $375 @10 ASM ENTITY @2 22 #
vertex $-1 -1 $-1 $411 $438 #
intcurve-curve $-1 -1 $-1 forward { ref 29 } F 0 F 1 #
DXID-attrib $-1 -1 $-1 $-1 $378 @10 ASM ENTITY @1 7 #
spline-surface $-1 -1 $-1 forward { ref 28 } I I I I #
edge $-1 -1 $-1 $439 -3.141592653589793116 $439 3.141592653589793116 $380 $440 forward @7 unknown #
vertex $-1 -1 $-1 $381 $441 #
ellipse-curve $-1 -1 $-1 1118.989939745550828 6148.244695846096874 -6.692771916703451023e-13 1.224646799147353207e-16 1 1.224646799147353454e-16 -808.375 9.899738562607418632e-14 -4.487382687656804592e-14 1 I I #
point $-1 -1 $-1 -30.87112473160019022 5748.244695846096874 2.032913686584604722e-13 #
loop $-1 -1 $-1 $-1 $442 $356 #
coedge $-1 -1 $-1 $425 $395 $397 $429 forward $357 $443 #
coedge $-1 -1 $-1 $395 $425 $442 $444 reversed $357 $445 #
coedge $-1 -1 $-1 $424 $423 $395 $426 forward $357 $446 #
edge $447 -1 $-1 $433 0 $448 1 $425 $449 forward @7 tangent #
pcurve $-1 -1 $-1 0 forward { exppc nubs 1 open 2 
	-1 1 -0 1 
	-1 0 
	0 0 
	0 
	spline forward { ref 32 } I I I I 
	} 0 0 #
pcurve $-1 -1 $-1 0 forward { exppc nubs 1 periodic 2 
	0 1 6.283185307179586232 1 
	-0 0 
	-0 6.283185307179586232 
	0 
	spline forward { ref 21 } I I I I 
	} 0 0 #
edge $-1 -1 $-1 $433 0 $433 6.283185307179586232 $423 $450 forward @7 tangent #
pcurve $-1 -1 $-1 0 forward { exppc nubs 1 periodic 2 
	-6.283185307179586232 1 -0 1 
	-1 6.283185307179586232 
	-1 0 
	0 
	spline forward { ref 21 } I I I I 
	} 0 0 #
pcurve $-1 -1 $-1 0 forward { exppc nubs 1 open 2 
	0 1 1 1 
	0 6.283185307179586232 
	-1 6.283185307179586232 
	0 
	spline forward { ref 21 } I I I I 
	} 0 0 #
DXID-attrib $-1 -1 $-1 $-1 $399 @10 ASM ENTITY @2 17 #
vertex $-1 -1 $-1 $399 $451 #
intcurve-curve $-1 -1 $-1 forward { ref 22 } F 0 F 1 #
ellipse-curve $-1 -1 $-1 1118.989939745550828 10048.24469584609506 -9.062386313690431256e-14 1.224646799147353207e-16 1 0 -2647.234455744425759 3.241927202819996941e-13 0 1 I I #
point $-1 -1 $-1 -1528.244515998875386 10048.24469584609506 -9.062386313690431256e-14 #
ellipse-curve $-1 -1 $-1 1118.989939745550828 8839.098943257187784 -9.062386313690431256e-14 1.224646799147353207e-16 1 0 -813.6719759305319712 9.964607808792282293e-14 0 1 I I #
point $-1 -1 $-1 305.3179638150197661 8839.098943257187784 -9.062386313690431256e-14 #
vertex $-1 -1 $-1 $418 $452 #
ellipse-curve $-1 -1 $-1 1118.989939745550828 10748.24469584609687 -1.080193066241967955e-13 1.224646799147353207e-16 1 1.224646799147353454e-16 -808.375 9.899738562607418632e-14 -4.487382687656804592e-14 1 I I #
point $-1 -1 $-1 1927.364939745551055 6148.244695846096874 -5.254059791677031477e-13 #
coedge $-1 -1 $-1 $442 $442 $424 $444 forward $422 $-1 #
pcurve $-1 -1 $-1 0 forward { exppc nubs 1 periodic 2 
	0 1 6.283185307179586232 1 
	-0 0 
	-0 6.283185307179586232 
	0 
	spline forward { ref 32 } I I I I 
	} 0 0 #
edge $-1 -1 $-1 $448 0 $448 6.283185307179586232 $442 $453 forward @7 unknown #
pcurve $-1 -1 $-1 0 forward { exppc nubs 1 periodic 2 
	-6.283185307179586232 1 -0 1 
	-1 6.283185307179586232 
	-1 0 
	0 
	spline forward { ref 32 } I I I I 
	} 0 0 #
pcurve $-1 -1 $-1 0 forward { exppc nubs 1 open 2 
	0 1 1 1 
	0 6.283185307179586232 
	-1 6.283185307179586232 
	0 
	spline forward { ref 32 } I I I I 
	} 0 0 #
DXID-attrib $-1 -1 $-1 $-1 $426 @10 ASM ENTITY @2 19 #
vertex $-1 -1 $-1 $426 $454 #
intcurve-curve $-1 -1 $-1 forward { ref 33 } F 0 F 1 #
ellipse-curve $-1 -1 $-1 1118.989939745550828 10813.55206825718778 -9.062386313690431256e-14 1.224646799147353207e-16 1 0 -975.0677688916526904 1.194113622124913476e-13 0 1 I I #
point $-1 -1 $-1 143.9221708538991606 10813.55206825718778 -9.062386313690431256e-14 #
point $-1 -1 $-1 1927.364939745551055 10748.24469584609687 3.445700190473035005e-14 #
ellipse-curve $-1 -1 $-1 1118.989939745550828 10917.40110733494657 -9.062386313690431256e-14 1.224646799147353207e-16 1 0 -808.3802890777589027 9.899803335128895147e-14 0 1 I I #
point $-1 -1 $-1 310.6096506677931757 10917.40110733495021 -9.062386313690431256e-14 #
End-of-ACIS-data 