ISO-10303-21;
HEADER;
/* Generated by software containing ST-Developer
 * from STEP Tools, Inc. (www.steptools.com) 
 */

FILE_DESCRIPTION(
/* description */ (''),
/* implementation_level */ '2;1');

FILE_NAME(
/* name */ 'LED5mm.step',
/* time_stamp */ '2024-11-03T12:59:20-05:00',
/* author */ (''),
/* organization */ (''),
/* preprocessor_version */ 'ST-DEVELOPER v20',
/* originating_system */ 'Autodesk Translation Framework v13.20.0.188',

/* authorisation */ '');

FILE_SCHEMA (('AUTOMOTIVE_DESIGN { 1 0 10303 214 3 1 1 }'));
ENDSEC;

DATA;
#10=MECHANICAL_DESIGN_GEOMETRIC_PRESENTATION_REPRESENTATION('',(#13,#14,
#15,#16,#17,#18,#19,#20,#21,#22,#23),#641);
#11=SHAPE_REPRESENTATION_RELATIONSHIP('SRR','None',#648,#12);
#12=ADVANCED_BREP_SHAPE_REPRESENTATION('',(#24,#25,#26),#640);
#13=STYLED_ITEM('',(#658),#24);
#14=STYLED_ITEM('',(#659),#370);
#15=STYLED_ITEM('',(#659),#373);
#16=STYLED_ITEM('',(#659),#374);
#17=STYLED_ITEM('',(#659),#377);
#18=STYLED_ITEM('',(#657),#25);
#19=STYLED_ITEM('',(#659),#378);
#20=STYLED_ITEM('',(#659),#382);
#21=STYLED_ITEM('',(#659),#383);
#22=STYLED_ITEM('',(#659),#385);
#23=STYLED_ITEM('',(#657),#26);
#24=MANIFOLD_SOLID_BREP('Body1',#386);
#25=MANIFOLD_SOLID_BREP('Body2',#387);
#26=MANIFOLD_SOLID_BREP('Body3',#388);
#27=PLANE('',#409);
#28=PLANE('',#411);
#29=PLANE('',#414);
#30=PLANE('',#415);
#31=PLANE('',#416);
#32=PLANE('',#417);
#33=PLANE('',#418);
#34=PLANE('',#419);
#35=PLANE('',#420);
#36=PLANE('',#421);
#37=PLANE('',#422);
#38=PLANE('',#423);
#39=PLANE('',#424);
#40=PLANE('',#425);
#41=PLANE('',#426);
#42=PLANE('',#427);
#43=PLANE('',#428);
#44=PLANE('',#429);
#45=PLANE('',#430);
#46=LINE('',#543,#88);
#47=LINE('',#551,#89);
#48=LINE('',#552,#90);
#49=LINE('',#556,#91);
#50=LINE('',#557,#92);
#51=LINE('',#558,#93);
#52=LINE('',#565,#94);
#53=LINE('',#567,#95);
#54=LINE('',#569,#96);
#55=LINE('',#571,#97);
#56=LINE('',#573,#98);
#57=LINE('',#574,#99);
#58=LINE('',#577,#100);
#59=LINE('',#579,#101);
#60=LINE('',#580,#102);
#61=LINE('',#583,#103);
#62=LINE('',#584,#104);
#63=LINE('',#587,#105);
#64=LINE('',#588,#106);
#65=LINE('',#591,#107);
#66=LINE('',#592,#108);
#67=LINE('',#595,#109);
#68=LINE('',#596,#110);
#69=LINE('',#598,#111);
#70=LINE('',#603,#112);
#71=LINE('',#605,#113);
#72=LINE('',#607,#114);
#73=LINE('',#609,#115);
#74=LINE('',#611,#116);
#75=LINE('',#612,#117);
#76=LINE('',#615,#118);
#77=LINE('',#617,#119);
#78=LINE('',#618,#120);
#79=LINE('',#621,#121);
#80=LINE('',#622,#122);
#81=LINE('',#625,#123);
#82=LINE('',#626,#124);
#83=LINE('',#629,#125);
#84=LINE('',#630,#126);
#85=LINE('',#633,#127);
#86=LINE('',#634,#128);
#87=LINE('',#636,#129);
#88=VECTOR('',#443,2.5);
#89=VECTOR('',#452,10.);
#90=VECTOR('',#453,10.);
#91=VECTOR('',#456,10.);
#92=VECTOR('',#457,10.);
#93=VECTOR('',#458,10.);
#94=VECTOR('',#467,10.);
#95=VECTOR('',#468,10.);
#96=VECTOR('',#469,10.);
#97=VECTOR('',#470,10.);
#98=VECTOR('',#471,10.);
#99=VECTOR('',#472,10.);
#100=VECTOR('',#475,10.);
#101=VECTOR('',#476,10.);
#102=VECTOR('',#477,10.);
#103=VECTOR('',#480,10.);
#104=VECTOR('',#481,10.);
#105=VECTOR('',#484,10.);
#106=VECTOR('',#485,10.);
#107=VECTOR('',#488,10.);
#108=VECTOR('',#489,10.);
#109=VECTOR('',#492,10.);
#110=VECTOR('',#493,10.);
#111=VECTOR('',#496,10.);
#112=VECTOR('',#501,10.);
#113=VECTOR('',#502,10.);
#114=VECTOR('',#503,10.);
#115=VECTOR('',#504,10.);
#116=VECTOR('',#505,10.);
#117=VECTOR('',#506,10.);
#118=VECTOR('',#509,10.);
#119=VECTOR('',#510,10.);
#120=VECTOR('',#511,10.);
#121=VECTOR('',#514,10.);
#122=VECTOR('',#515,10.);
#123=VECTOR('',#518,10.);
#124=VECTOR('',#519,10.);
#125=VECTOR('',#522,10.);
#126=VECTOR('',#523,10.);
#127=VECTOR('',#526,10.);
#128=VECTOR('',#527,10.);
#129=VECTOR('',#530,10.);
#130=CYLINDRICAL_SURFACE('',#406,2.5);
#131=CYLINDRICAL_SURFACE('',#412,2.75);
#132=FACE_OUTER_BOUND('',#154,.T.);
#133=FACE_OUTER_BOUND('',#155,.T.);
#134=FACE_OUTER_BOUND('',#156,.T.);
#135=FACE_OUTER_BOUND('',#157,.T.);
#136=FACE_OUTER_BOUND('',#158,.T.);
#137=FACE_OUTER_BOUND('',#159,.T.);
#138=FACE_OUTER_BOUND('',#160,.T.);
#139=FACE_OUTER_BOUND('',#161,.T.);
#140=FACE_OUTER_BOUND('',#162,.T.);
#141=FACE_OUTER_BOUND('',#163,.T.);
#142=FACE_OUTER_BOUND('',#164,.T.);
#143=FACE_OUTER_BOUND('',#165,.T.);
#144=FACE_OUTER_BOUND('',#166,.T.);
#145=FACE_OUTER_BOUND('',#167,.T.);
#146=FACE_OUTER_BOUND('',#168,.T.);
#147=FACE_OUTER_BOUND('',#169,.T.);
#148=FACE_OUTER_BOUND('',#170,.T.);
#149=FACE_OUTER_BOUND('',#171,.T.);
#150=FACE_OUTER_BOUND('',#172,.T.);
#151=FACE_OUTER_BOUND('',#173,.T.);
#152=FACE_OUTER_BOUND('',#174,.T.);
#153=FACE_OUTER_BOUND('',#175,.T.);
#154=EDGE_LOOP('',(#265,#266,#267,#268));
#155=EDGE_LOOP('',(#269,#270,#271,#272,#273,#274));
#156=EDGE_LOOP('',(#275,#276,#277,#278,#279));
#157=EDGE_LOOP('',(#280,#281,#282,#283,#284));
#158=EDGE_LOOP('',(#285,#286,#287,#288));
#159=EDGE_LOOP('',(#289,#290));
#160=EDGE_LOOP('',(#291,#292,#293,#294,#295,#296));
#161=EDGE_LOOP('',(#297,#298,#299,#300));
#162=EDGE_LOOP('',(#301,#302,#303,#304));
#163=EDGE_LOOP('',(#305,#306,#307,#308));
#164=EDGE_LOOP('',(#309,#310,#311,#312));
#165=EDGE_LOOP('',(#313,#314,#315,#316));
#166=EDGE_LOOP('',(#317,#318,#319,#320));
#167=EDGE_LOOP('',(#321,#322,#323,#324,#325,#326));
#168=EDGE_LOOP('',(#327,#328,#329,#330,#331,#332));
#169=EDGE_LOOP('',(#333,#334,#335,#336));
#170=EDGE_LOOP('',(#337,#338,#339,#340));
#171=EDGE_LOOP('',(#341,#342,#343,#344));
#172=EDGE_LOOP('',(#345,#346,#347,#348));
#173=EDGE_LOOP('',(#349,#350,#351,#352));
#174=EDGE_LOOP('',(#353,#354,#355,#356));
#175=EDGE_LOOP('',(#357,#358,#359,#360,#361,#362));
#176=CIRCLE('',#403,2.5);
#177=CIRCLE('',#404,2.5);
#178=CIRCLE('',#405,2.5);
#179=CIRCLE('',#407,2.5);
#180=CIRCLE('',#408,2.5);
#181=CIRCLE('',#410,2.75);
#182=CIRCLE('',#413,2.75);
#183=VERTEX_POINT('',#535);
#184=VERTEX_POINT('',#536);
#185=VERTEX_POINT('',#538);
#186=VERTEX_POINT('',#542);
#187=VERTEX_POINT('',#544);
#188=VERTEX_POINT('',#548);
#189=VERTEX_POINT('',#549);
#190=VERTEX_POINT('',#554);
#191=VERTEX_POINT('',#555);
#192=VERTEX_POINT('',#563);
#193=VERTEX_POINT('',#564);
#194=VERTEX_POINT('',#566);
#195=VERTEX_POINT('',#568);
#196=VERTEX_POINT('',#570);
#197=VERTEX_POINT('',#572);
#198=VERTEX_POINT('',#576);
#199=VERTEX_POINT('',#578);
#200=VERTEX_POINT('',#582);
#201=VERTEX_POINT('',#586);
#202=VERTEX_POINT('',#590);
#203=VERTEX_POINT('',#594);
#204=VERTEX_POINT('',#601);
#205=VERTEX_POINT('',#602);
#206=VERTEX_POINT('',#604);
#207=VERTEX_POINT('',#606);
#208=VERTEX_POINT('',#608);
#209=VERTEX_POINT('',#610);
#210=VERTEX_POINT('',#614);
#211=VERTEX_POINT('',#616);
#212=VERTEX_POINT('',#620);
#213=VERTEX_POINT('',#624);
#214=VERTEX_POINT('',#628);
#215=VERTEX_POINT('',#632);
#216=EDGE_CURVE('',#183,#184,#176,.T.);
#217=EDGE_CURVE('',#185,#184,#177,.T.);
#218=EDGE_CURVE('',#184,#183,#178,.T.);
#219=EDGE_CURVE('',#183,#186,#46,.T.);
#220=EDGE_CURVE('',#187,#186,#179,.T.);
#221=EDGE_CURVE('',#186,#187,#180,.T.);
#222=EDGE_CURVE('',#188,#189,#181,.T.);
#223=EDGE_CURVE('',#189,#187,#47,.T.);
#224=EDGE_CURVE('',#187,#188,#48,.T.);
#225=EDGE_CURVE('',#190,#191,#49,.T.);
#226=EDGE_CURVE('',#191,#188,#50,.T.);
#227=EDGE_CURVE('',#190,#189,#51,.T.);
#228=EDGE_CURVE('',#191,#190,#182,.T.);
#229=EDGE_CURVE('',#192,#193,#52,.T.);
#230=EDGE_CURVE('',#193,#194,#53,.T.);
#231=EDGE_CURVE('',#194,#195,#54,.T.);
#232=EDGE_CURVE('',#195,#196,#55,.T.);
#233=EDGE_CURVE('',#196,#197,#56,.T.);
#234=EDGE_CURVE('',#197,#192,#57,.T.);
#235=EDGE_CURVE('',#198,#193,#58,.T.);
#236=EDGE_CURVE('',#199,#198,#59,.T.);
#237=EDGE_CURVE('',#194,#199,#60,.T.);
#238=EDGE_CURVE('',#200,#199,#61,.T.);
#239=EDGE_CURVE('',#195,#200,#62,.T.);
#240=EDGE_CURVE('',#201,#200,#63,.T.);
#241=EDGE_CURVE('',#196,#201,#64,.T.);
#242=EDGE_CURVE('',#202,#201,#65,.T.);
#243=EDGE_CURVE('',#197,#202,#66,.T.);
#244=EDGE_CURVE('',#203,#202,#67,.T.);
#245=EDGE_CURVE('',#192,#203,#68,.T.);
#246=EDGE_CURVE('',#198,#203,#69,.T.);
#247=EDGE_CURVE('',#204,#205,#70,.T.);
#248=EDGE_CURVE('',#205,#206,#71,.T.);
#249=EDGE_CURVE('',#206,#207,#72,.T.);
#250=EDGE_CURVE('',#207,#208,#73,.T.);
#251=EDGE_CURVE('',#208,#209,#74,.T.);
#252=EDGE_CURVE('',#209,#204,#75,.T.);
#253=EDGE_CURVE('',#210,#205,#76,.T.);
#254=EDGE_CURVE('',#211,#210,#77,.T.);
#255=EDGE_CURVE('',#206,#211,#78,.T.);
#256=EDGE_CURVE('',#212,#211,#79,.T.);
#257=EDGE_CURVE('',#207,#212,#80,.T.);
#258=EDGE_CURVE('',#213,#212,#81,.T.);
#259=EDGE_CURVE('',#208,#213,#82,.T.);
#260=EDGE_CURVE('',#214,#213,#83,.T.);
#261=EDGE_CURVE('',#209,#214,#84,.T.);
#262=EDGE_CURVE('',#215,#214,#85,.T.);
#263=EDGE_CURVE('',#204,#215,#86,.T.);
#264=EDGE_CURVE('',#210,#215,#87,.T.);
#265=ORIENTED_EDGE('',*,*,#216,.T.);
#266=ORIENTED_EDGE('',*,*,#217,.F.);
#267=ORIENTED_EDGE('',*,*,#217,.T.);
#268=ORIENTED_EDGE('',*,*,#218,.T.);
#269=ORIENTED_EDGE('',*,*,#216,.F.);
#270=ORIENTED_EDGE('',*,*,#219,.T.);
#271=ORIENTED_EDGE('',*,*,#220,.F.);
#272=ORIENTED_EDGE('',*,*,#221,.F.);
#273=ORIENTED_EDGE('',*,*,#219,.F.);
#274=ORIENTED_EDGE('',*,*,#218,.F.);
#275=ORIENTED_EDGE('',*,*,#222,.T.);
#276=ORIENTED_EDGE('',*,*,#223,.T.);
#277=ORIENTED_EDGE('',*,*,#220,.T.);
#278=ORIENTED_EDGE('',*,*,#221,.T.);
#279=ORIENTED_EDGE('',*,*,#224,.T.);
#280=ORIENTED_EDGE('',*,*,#225,.T.);
#281=ORIENTED_EDGE('',*,*,#226,.T.);
#282=ORIENTED_EDGE('',*,*,#224,.F.);
#283=ORIENTED_EDGE('',*,*,#223,.F.);
#284=ORIENTED_EDGE('',*,*,#227,.F.);
#285=ORIENTED_EDGE('',*,*,#228,.T.);
#286=ORIENTED_EDGE('',*,*,#227,.T.);
#287=ORIENTED_EDGE('',*,*,#222,.F.);
#288=ORIENTED_EDGE('',*,*,#226,.F.);
#289=ORIENTED_EDGE('',*,*,#228,.F.);
#290=ORIENTED_EDGE('',*,*,#225,.F.);
#291=ORIENTED_EDGE('',*,*,#229,.T.);
#292=ORIENTED_EDGE('',*,*,#230,.T.);
#293=ORIENTED_EDGE('',*,*,#231,.T.);
#294=ORIENTED_EDGE('',*,*,#232,.T.);
#295=ORIENTED_EDGE('',*,*,#233,.T.);
#296=ORIENTED_EDGE('',*,*,#234,.T.);
#297=ORIENTED_EDGE('',*,*,#235,.F.);
#298=ORIENTED_EDGE('',*,*,#236,.F.);
#299=ORIENTED_EDGE('',*,*,#237,.F.);
#300=ORIENTED_EDGE('',*,*,#230,.F.);
#301=ORIENTED_EDGE('',*,*,#237,.T.);
#302=ORIENTED_EDGE('',*,*,#238,.F.);
#303=ORIENTED_EDGE('',*,*,#239,.F.);
#304=ORIENTED_EDGE('',*,*,#231,.F.);
#305=ORIENTED_EDGE('',*,*,#239,.T.);
#306=ORIENTED_EDGE('',*,*,#240,.F.);
#307=ORIENTED_EDGE('',*,*,#241,.F.);
#308=ORIENTED_EDGE('',*,*,#232,.F.);
#309=ORIENTED_EDGE('',*,*,#241,.T.);
#310=ORIENTED_EDGE('',*,*,#242,.F.);
#311=ORIENTED_EDGE('',*,*,#243,.F.);
#312=ORIENTED_EDGE('',*,*,#233,.F.);
#313=ORIENTED_EDGE('',*,*,#243,.T.);
#314=ORIENTED_EDGE('',*,*,#244,.F.);
#315=ORIENTED_EDGE('',*,*,#245,.F.);
#316=ORIENTED_EDGE('',*,*,#234,.F.);
#317=ORIENTED_EDGE('',*,*,#245,.T.);
#318=ORIENTED_EDGE('',*,*,#246,.F.);
#319=ORIENTED_EDGE('',*,*,#235,.T.);
#320=ORIENTED_EDGE('',*,*,#229,.F.);
#321=ORIENTED_EDGE('',*,*,#246,.T.);
#322=ORIENTED_EDGE('',*,*,#244,.T.);
#323=ORIENTED_EDGE('',*,*,#242,.T.);
#324=ORIENTED_EDGE('',*,*,#240,.T.);
#325=ORIENTED_EDGE('',*,*,#238,.T.);
#326=ORIENTED_EDGE('',*,*,#236,.T.);
#327=ORIENTED_EDGE('',*,*,#247,.T.);
#328=ORIENTED_EDGE('',*,*,#248,.T.);
#329=ORIENTED_EDGE('',*,*,#249,.T.);
#330=ORIENTED_EDGE('',*,*,#250,.T.);
#331=ORIENTED_EDGE('',*,*,#251,.T.);
#332=ORIENTED_EDGE('',*,*,#252,.T.);
#333=ORIENTED_EDGE('',*,*,#253,.F.);
#334=ORIENTED_EDGE('',*,*,#254,.F.);
#335=ORIENTED_EDGE('',*,*,#255,.F.);
#336=ORIENTED_EDGE('',*,*,#248,.F.);
#337=ORIENTED_EDGE('',*,*,#255,.T.);
#338=ORIENTED_EDGE('',*,*,#256,.F.);
#339=ORIENTED_EDGE('',*,*,#257,.F.);
#340=ORIENTED_EDGE('',*,*,#249,.F.);
#341=ORIENTED_EDGE('',*,*,#257,.T.);
#342=ORIENTED_EDGE('',*,*,#258,.F.);
#343=ORIENTED_EDGE('',*,*,#259,.F.);
#344=ORIENTED_EDGE('',*,*,#250,.F.);
#345=ORIENTED_EDGE('',*,*,#259,.T.);
#346=ORIENTED_EDGE('',*,*,#260,.F.);
#347=ORIENTED_EDGE('',*,*,#261,.F.);
#348=ORIENTED_EDGE('',*,*,#251,.F.);
#349=ORIENTED_EDGE('',*,*,#261,.T.);
#350=ORIENTED_EDGE('',*,*,#262,.F.);
#351=ORIENTED_EDGE('',*,*,#263,.F.);
#352=ORIENTED_EDGE('',*,*,#252,.F.);
#353=ORIENTED_EDGE('',*,*,#263,.T.);
#354=ORIENTED_EDGE('',*,*,#264,.F.);
#355=ORIENTED_EDGE('',*,*,#253,.T.);
#356=ORIENTED_EDGE('',*,*,#247,.F.);
#357=ORIENTED_EDGE('',*,*,#264,.T.);
#358=ORIENTED_EDGE('',*,*,#262,.T.);
#359=ORIENTED_EDGE('',*,*,#260,.T.);
#360=ORIENTED_EDGE('',*,*,#258,.T.);
#361=ORIENTED_EDGE('',*,*,#256,.T.);
#362=ORIENTED_EDGE('',*,*,#254,.T.);
#363=SPHERICAL_SURFACE('',#402,2.5);
#364=ADVANCED_FACE('',(#132),#363,.T.);
#365=ADVANCED_FACE('',(#133),#130,.T.);
#366=ADVANCED_FACE('',(#134),#27,.T.);
#367=ADVANCED_FACE('',(#135),#28,.T.);
#368=ADVANCED_FACE('',(#136),#131,.T.);
#369=ADVANCED_FACE('',(#137),#29,.F.);
#370=ADVANCED_FACE('',(#138),#30,.T.);
#371=ADVANCED_FACE('',(#139),#31,.T.);
#372=ADVANCED_FACE('',(#140),#32,.T.);
#373=ADVANCED_FACE('',(#141),#33,.T.);
#374=ADVANCED_FACE('',(#142),#34,.T.);
#375=ADVANCED_FACE('',(#143),#35,.T.);
#376=ADVANCED_FACE('',(#144),#36,.T.);
#377=ADVANCED_FACE('',(#145),#37,.T.);
#378=ADVANCED_FACE('',(#146),#38,.T.);
#379=ADVANCED_FACE('',(#147),#39,.T.);
#380=ADVANCED_FACE('',(#148),#40,.T.);
#381=ADVANCED_FACE('',(#149),#41,.T.);
#382=ADVANCED_FACE('',(#150),#42,.T.);
#383=ADVANCED_FACE('',(#151),#43,.T.);
#384=ADVANCED_FACE('',(#152),#44,.T.);
#385=ADVANCED_FACE('',(#153),#45,.T.);
#386=CLOSED_SHELL('',(#364,#365,#366,#367,#368,#369));
#387=CLOSED_SHELL('',(#370,#371,#372,#373,#374,#375,#376,#377));
#388=CLOSED_SHELL('',(#378,#379,#380,#381,#382,#383,#384,#385));
#389=DERIVED_UNIT_ELEMENT(#391,1.);
#390=DERIVED_UNIT_ELEMENT(#643,-3.);
#391=(
MASS_UNIT()
NAMED_UNIT(*)
SI_UNIT(.KILO.,.GRAM.)
);
#392=DERIVED_UNIT((#389,#390));
#393=MEASURE_REPRESENTATION_ITEM('density measure',
POSITIVE_RATIO_MEASURE(7850.),#392);
#394=PROPERTY_DEFINITION_REPRESENTATION(#399,#396);
#395=PROPERTY_DEFINITION_REPRESENTATION(#400,#397);
#396=REPRESENTATION('material name',(#398),#640);
#397=REPRESENTATION('density',(#393),#640);
#398=DESCRIPTIVE_REPRESENTATION_ITEM('Steel','Steel');
#399=PROPERTY_DEFINITION('material property','material name',#650);
#400=PROPERTY_DEFINITION('material property','density of part',#650);
#401=AXIS2_PLACEMENT_3D('',#533,#431,#432);
#402=AXIS2_PLACEMENT_3D('',#534,#433,#434);
#403=AXIS2_PLACEMENT_3D('',#537,#435,#436);
#404=AXIS2_PLACEMENT_3D('',#539,#437,#438);
#405=AXIS2_PLACEMENT_3D('',#540,#439,#440);
#406=AXIS2_PLACEMENT_3D('',#541,#441,#442);
#407=AXIS2_PLACEMENT_3D('',#545,#444,#445);
#408=AXIS2_PLACEMENT_3D('',#546,#446,#447);
#409=AXIS2_PLACEMENT_3D('',#547,#448,#449);
#410=AXIS2_PLACEMENT_3D('',#550,#450,#451);
#411=AXIS2_PLACEMENT_3D('',#553,#454,#455);
#412=AXIS2_PLACEMENT_3D('',#559,#459,#460);
#413=AXIS2_PLACEMENT_3D('',#560,#461,#462);
#414=AXIS2_PLACEMENT_3D('',#561,#463,#464);
#415=AXIS2_PLACEMENT_3D('',#562,#465,#466);
#416=AXIS2_PLACEMENT_3D('',#575,#473,#474);
#417=AXIS2_PLACEMENT_3D('',#581,#478,#479);
#418=AXIS2_PLACEMENT_3D('',#585,#482,#483);
#419=AXIS2_PLACEMENT_3D('',#589,#486,#487);
#420=AXIS2_PLACEMENT_3D('',#593,#490,#491);
#421=AXIS2_PLACEMENT_3D('',#597,#494,#495);
#422=AXIS2_PLACEMENT_3D('',#599,#497,#498);
#423=AXIS2_PLACEMENT_3D('',#600,#499,#500);
#424=AXIS2_PLACEMENT_3D('',#613,#507,#508);
#425=AXIS2_PLACEMENT_3D('',#619,#512,#513);
#426=AXIS2_PLACEMENT_3D('',#623,#516,#517);
#427=AXIS2_PLACEMENT_3D('',#627,#520,#521);
#428=AXIS2_PLACEMENT_3D('',#631,#524,#525);
#429=AXIS2_PLACEMENT_3D('',#635,#528,#529);
#430=AXIS2_PLACEMENT_3D('',#637,#531,#532);
#431=DIRECTION('axis',(0.,0.,1.));
#432=DIRECTION('refdir',(1.,0.,0.));
#433=DIRECTION('center_axis',(6.12323399573677E-17,0.,1.));
#434=DIRECTION('ref_axis',(1.,0.,0.));
#435=DIRECTION('center_axis',(0.,0.,1.));
#436=DIRECTION('ref_axis',(-1.,0.,0.));
#437=DIRECTION('center_axis',(1.22464679914735E-16,-1.,0.));
#438=DIRECTION('ref_axis',(-1.,-1.22464679914735E-16,0.));
#439=DIRECTION('center_axis',(0.,0.,1.));
#440=DIRECTION('ref_axis',(-1.,0.,0.));
#441=DIRECTION('center_axis',(0.,0.,1.));
#442=DIRECTION('ref_axis',(-1.,0.,0.));
#443=DIRECTION('',(0.,0.,-1.));
#444=DIRECTION('center_axis',(0.,0.,-1.));
#445=DIRECTION('ref_axis',(-1.,0.,0.));
#446=DIRECTION('center_axis',(0.,0.,-1.));
#447=DIRECTION('ref_axis',(-1.,0.,0.));
#448=DIRECTION('center_axis',(0.,0.,1.));
#449=DIRECTION('ref_axis',(1.,0.,0.));
#450=DIRECTION('center_axis',(0.,0.,1.));
#451=DIRECTION('ref_axis',(1.,0.,0.));
#452=DIRECTION('',(-1.,0.,0.));
#453=DIRECTION('',(-1.,0.,0.));
#454=DIRECTION('center_axis',(0.,1.,0.));
#455=DIRECTION('ref_axis',(-1.,0.,0.));
#456=DIRECTION('',(-1.,0.,0.));
#457=DIRECTION('',(0.,0.,1.));
#458=DIRECTION('',(0.,0.,1.));
#459=DIRECTION('center_axis',(0.,0.,1.));
#460=DIRECTION('ref_axis',(-1.83697019872103E-16,-1.,0.));
#461=DIRECTION('center_axis',(0.,0.,1.));
#462=DIRECTION('ref_axis',(1.,0.,0.));
#463=DIRECTION('center_axis',(0.,0.,1.));
#464=DIRECTION('ref_axis',(1.,0.,0.));
#465=DIRECTION('center_axis',(-1.,0.,0.));
#466=DIRECTION('ref_axis',(0.,0.,1.));
#467=DIRECTION('',(0.,1.,0.));
#468=DIRECTION('',(0.,0.458122847290851,-0.888888888888889));
#469=DIRECTION('',(0.,-1.,0.));
#470=DIRECTION('',(0.,0.,-1.));
#471=DIRECTION('',(0.,-1.,0.));
#472=DIRECTION('',(0.,0.,1.));
#473=DIRECTION('center_axis',(0.,0.888888888888889,0.458122847290851));
#474=DIRECTION('ref_axis',(0.,-0.458122847290851,0.888888888888889));
#475=DIRECTION('',(-1.,0.,0.));
#476=DIRECTION('',(0.,-0.458122847290851,0.888888888888889));
#477=DIRECTION('',(1.,0.,0.));
#478=DIRECTION('center_axis',(0.,0.,-1.));
#479=DIRECTION('ref_axis',(0.,1.,0.));
#480=DIRECTION('',(0.,1.,0.));
#481=DIRECTION('',(1.,0.,0.));
#482=DIRECTION('center_axis',(0.,1.,0.));
#483=DIRECTION('ref_axis',(0.,0.,1.));
#484=DIRECTION('',(0.,0.,1.));
#485=DIRECTION('',(1.,0.,0.));
#486=DIRECTION('center_axis',(0.,0.,-1.));
#487=DIRECTION('ref_axis',(0.,1.,0.));
#488=DIRECTION('',(0.,1.,0.));
#489=DIRECTION('',(1.,0.,0.));
#490=DIRECTION('center_axis',(0.,-1.,0.));
#491=DIRECTION('ref_axis',(0.,0.,-1.));
#492=DIRECTION('',(0.,0.,-1.));
#493=DIRECTION('',(1.,0.,0.));
#494=DIRECTION('center_axis',(0.,0.,1.));
#495=DIRECTION('ref_axis',(0.,-1.,0.));
#496=DIRECTION('',(0.,-1.,0.));
#497=DIRECTION('center_axis',(1.,0.,0.));
#498=DIRECTION('ref_axis',(0.,0.,-1.));
#499=DIRECTION('center_axis',(-1.,0.,0.));
#500=DIRECTION('ref_axis',(0.,0.,1.));
#501=DIRECTION('',(0.,0.,1.));
#502=DIRECTION('',(0.,-1.,-4.02707865830846E-16));
#503=DIRECTION('',(0.,-0.458122847290851,0.888888888888889));
#504=DIRECTION('',(0.,1.,0.));
#505=DIRECTION('',(0.,0.,-1.));
#506=DIRECTION('',(0.,-1.,0.));
#507=DIRECTION('center_axis',(0.,4.02707865830846E-16,-1.));
#508=DIRECTION('ref_axis',(0.,1.,4.02707865830846E-16));
#509=DIRECTION('',(-1.,0.,0.));
#510=DIRECTION('',(0.,1.,4.02707865830846E-16));
#511=DIRECTION('',(1.,0.,0.));
#512=DIRECTION('center_axis',(0.,-0.888888888888889,-0.458122847290851));
#513=DIRECTION('ref_axis',(0.,0.458122847290851,-0.888888888888889));
#514=DIRECTION('',(0.,0.458122847290851,-0.888888888888889));
#515=DIRECTION('',(1.,0.,0.));
#516=DIRECTION('center_axis',(0.,0.,1.));
#517=DIRECTION('ref_axis',(0.,-1.,0.));
#518=DIRECTION('',(0.,-1.,0.));
#519=DIRECTION('',(1.,0.,0.));
#520=DIRECTION('center_axis',(0.,1.,0.));
#521=DIRECTION('ref_axis',(0.,0.,1.));
#522=DIRECTION('',(0.,0.,1.));
#523=DIRECTION('',(1.,0.,0.));
#524=DIRECTION('center_axis',(0.,0.,-1.));
#525=DIRECTION('ref_axis',(0.,1.,0.));
#526=DIRECTION('',(0.,1.,0.));
#527=DIRECTION('',(1.,0.,0.));
#528=DIRECTION('center_axis',(0.,-1.,0.));
#529=DIRECTION('ref_axis',(0.,0.,-1.));
#530=DIRECTION('',(0.,0.,-1.));
#531=DIRECTION('center_axis',(1.,0.,0.));
#532=DIRECTION('ref_axis',(0.,0.,-1.));
#533=CARTESIAN_POINT('',(0.,0.,0.));
#534=CARTESIAN_POINT('Origin',(0.,0.,6.5));
#535=CARTESIAN_POINT('',(2.5,3.06161699786838E-16,6.5));
#536=CARTESIAN_POINT('',(-2.5,-3.06161699786838E-16,6.5));
#537=CARTESIAN_POINT('Origin',(0.,0.,6.5));
#538=CARTESIAN_POINT('',(-1.53080849893419E-16,-1.87469972832732E-32,9.));
#539=CARTESIAN_POINT('Origin',(0.,0.,6.5));
#540=CARTESIAN_POINT('Origin',(0.,0.,6.5));
#541=CARTESIAN_POINT('Origin',(0.,0.,1.));
#542=CARTESIAN_POINT('',(2.5,3.06161699786838E-16,1.));
#543=CARTESIAN_POINT('',(2.5,3.06161699786838E-16,1.));
#544=CARTESIAN_POINT('',(0.,2.5,1.));
#545=CARTESIAN_POINT('Origin',(0.,0.,1.));
#546=CARTESIAN_POINT('Origin',(0.,0.,1.));
#547=CARTESIAN_POINT('Origin',(0.,-0.125,1.));
#548=CARTESIAN_POINT('',(-1.14564392373896,2.5,1.));
#549=CARTESIAN_POINT('',(1.14564392373896,2.5,1.));
#550=CARTESIAN_POINT('Origin',(0.,0.,1.));
#551=CARTESIAN_POINT('',(1.25,2.5,1.));
#552=CARTESIAN_POINT('',(1.25,2.5,1.));
#553=CARTESIAN_POINT('Origin',(1.14564392373896,2.5,0.));
#554=CARTESIAN_POINT('',(1.14564392373896,2.5,0.));
#555=CARTESIAN_POINT('',(-1.14564392373896,2.5,0.));
#556=CARTESIAN_POINT('',(1.25,2.5,0.));
#557=CARTESIAN_POINT('',(-1.14564392373896,2.5,0.));
#558=CARTESIAN_POINT('',(1.14564392373896,2.5,0.));
#559=CARTESIAN_POINT('Origin',(0.,0.,0.));
#560=CARTESIAN_POINT('Origin',(0.,0.,0.));
#561=CARTESIAN_POINT('Origin',(0.,-0.125,0.));
#562=CARTESIAN_POINT('Origin',(-0.25,-0.754611804248373,1.5));
#563=CARTESIAN_POINT('',(-0.25,-1.52000000745058,4.));
#564=CARTESIAN_POINT('',(-0.25,-1.02000000745058,4.));
#565=CARTESIAN_POINT('',(-0.25,-1.02000000745058,4.));
#566=CARTESIAN_POINT('',(-0.25,0.0107763989538348,2.));
#567=CARTESIAN_POINT('',(-0.25,-1.02000000745058,4.));
#568=CARTESIAN_POINT('',(-0.25,-1.02000000745058,2.));
#569=CARTESIAN_POINT('',(-0.25,0.0107763989538348,2.));
#570=CARTESIAN_POINT('',(-0.25,-1.02,-1.));
#571=CARTESIAN_POINT('',(-0.25,-1.02,0.));
#572=CARTESIAN_POINT('',(-0.25,-1.52000000745058,-1.));
#573=CARTESIAN_POINT('',(-0.25,-1.02,-1.));
#574=CARTESIAN_POINT('',(-0.25,-1.52000000745058,4.));
#575=CARTESIAN_POINT('Origin',(0.,0.0107763989538348,2.));
#576=CARTESIAN_POINT('',(0.25,-1.02000000745058,4.));
#577=CARTESIAN_POINT('',(0.,-1.02000000745058,4.));
#578=CARTESIAN_POINT('',(0.25,0.0107763989538348,2.));
#579=CARTESIAN_POINT('',(0.25,-1.02000000745058,4.));
#580=CARTESIAN_POINT('',(0.,0.0107763989538348,2.));
#581=CARTESIAN_POINT('Origin',(0.,-1.02000000745058,2.));
#582=CARTESIAN_POINT('',(0.25,-1.02000000745058,2.));
#583=CARTESIAN_POINT('',(0.25,0.0107763989538348,2.));
#584=CARTESIAN_POINT('',(0.,-1.02000000745058,2.));
#585=CARTESIAN_POINT('Origin',(0.,-1.02,-1.));
#586=CARTESIAN_POINT('',(0.25,-1.02,-1.));
#587=CARTESIAN_POINT('',(0.25,-1.02,0.));
#588=CARTESIAN_POINT('',(0.,-1.02,-1.));
#589=CARTESIAN_POINT('Origin',(0.,-1.52000000745058,-1.));
#590=CARTESIAN_POINT('',(0.25,-1.52000000745058,-1.));
#591=CARTESIAN_POINT('',(0.25,-1.02,-1.));
#592=CARTESIAN_POINT('',(0.,-1.52000000745058,-1.));
#593=CARTESIAN_POINT('Origin',(0.,-1.52000000745058,4.));
#594=CARTESIAN_POINT('',(0.25,-1.52000000745058,4.));
#595=CARTESIAN_POINT('',(0.25,-1.52000000745058,4.));
#596=CARTESIAN_POINT('',(0.,-1.52000000745058,4.));
#597=CARTESIAN_POINT('Origin',(0.,-1.02000000745058,4.));
#598=CARTESIAN_POINT('',(0.25,-1.02000000745058,4.));
#599=CARTESIAN_POINT('Origin',(0.25,-0.754611804248373,1.5));
#600=CARTESIAN_POINT('Origin',(-0.25,0.41000000782311,1.5));
#601=CARTESIAN_POINT('',(-0.25,1.02,-1.));
#602=CARTESIAN_POINT('',(-0.25,1.02,2.));
#603=CARTESIAN_POINT('',(-0.25,1.02,0.));
#604=CARTESIAN_POINT('',(-0.25,0.330776422050633,2.));
#605=CARTESIAN_POINT('',(-0.25,1.02,2.));
#606=CARTESIAN_POINT('',(-0.25,-0.699999984353781,4.));
#607=CARTESIAN_POINT('',(-0.25,0.330776422050633,2.));
#608=CARTESIAN_POINT('',(-0.25,1.52,4.));
#609=CARTESIAN_POINT('',(-0.25,1.02,4.));
#610=CARTESIAN_POINT('',(-0.25,1.52,-1.));
#611=CARTESIAN_POINT('',(-0.25,1.52,-1.));
#612=CARTESIAN_POINT('',(-0.25,1.02,-1.));
#613=CARTESIAN_POINT('Origin',(0.,0.330776422050633,2.));
#614=CARTESIAN_POINT('',(0.25,1.02,2.));
#615=CARTESIAN_POINT('',(0.,1.02,2.));
#616=CARTESIAN_POINT('',(0.25,0.330776422050633,2.));
#617=CARTESIAN_POINT('',(0.25,1.02,2.));
#618=CARTESIAN_POINT('',(0.,0.330776422050633,2.));
#619=CARTESIAN_POINT('Origin',(0.,-0.699999984353781,4.));
#620=CARTESIAN_POINT('',(0.25,-0.699999984353781,4.));
#621=CARTESIAN_POINT('',(0.25,0.330776422050633,2.));
#622=CARTESIAN_POINT('',(0.,-0.699999984353781,4.));
#623=CARTESIAN_POINT('Origin',(0.,1.52,4.));
#624=CARTESIAN_POINT('',(0.25,1.52,4.));
#625=CARTESIAN_POINT('',(0.25,1.02,4.));
#626=CARTESIAN_POINT('',(0.,1.52,4.));
#627=CARTESIAN_POINT('Origin',(0.,1.52,-1.));
#628=CARTESIAN_POINT('',(0.25,1.52,-1.));
#629=CARTESIAN_POINT('',(0.25,1.52,-1.));
#630=CARTESIAN_POINT('',(0.,1.52,-1.));
#631=CARTESIAN_POINT('Origin',(0.,1.02,-1.));
#632=CARTESIAN_POINT('',(0.25,1.02,-1.));
#633=CARTESIAN_POINT('',(0.25,1.02,-1.));
#634=CARTESIAN_POINT('',(0.,1.02,-1.));
#635=CARTESIAN_POINT('Origin',(0.,1.02,2.));
#636=CARTESIAN_POINT('',(0.25,1.02,0.));
#637=CARTESIAN_POINT('Origin',(0.25,0.41000000782311,1.5));
#638=UNCERTAINTY_MEASURE_WITH_UNIT(LENGTH_MEASURE(0.01),#642,
'DISTANCE_ACCURACY_VALUE',
'Maximum model space distance between geometric entities at asserted c
onnectivities');
#639=UNCERTAINTY_MEASURE_WITH_UNIT(LENGTH_MEASURE(0.01),#642,
'DISTANCE_ACCURACY_VALUE',
'Maximum model space distance between geometric entities at asserted c
onnectivities');
#640=(
GEOMETRIC_REPRESENTATION_CONTEXT(3)
GLOBAL_UNCERTAINTY_ASSIGNED_CONTEXT((#638))
GLOBAL_UNIT_ASSIGNED_CONTEXT((#642,#644,#645))
REPRESENTATION_CONTEXT('','3D')
);
#641=(
GEOMETRIC_REPRESENTATION_CONTEXT(3)
GLOBAL_UNCERTAINTY_ASSIGNED_CONTEXT((#639))
GLOBAL_UNIT_ASSIGNED_CONTEXT((#642,#644,#645))
REPRESENTATION_CONTEXT('','3D')
);
#642=(
LENGTH_UNIT()
NAMED_UNIT(*)
SI_UNIT(.MILLI.,.METRE.)
);
#643=(
LENGTH_UNIT()
NAMED_UNIT(*)
SI_UNIT($,.METRE.)
);
#644=(
NAMED_UNIT(*)
PLANE_ANGLE_UNIT()
SI_UNIT($,.RADIAN.)
);
#645=(
NAMED_UNIT(*)
SI_UNIT($,.STERADIAN.)
SOLID_ANGLE_UNIT()
);
#646=SHAPE_DEFINITION_REPRESENTATION(#647,#648);
#647=PRODUCT_DEFINITION_SHAPE('',$,#650);
#648=SHAPE_REPRESENTATION('',(#401),#640);
#649=PRODUCT_DEFINITION_CONTEXT('part definition',#654,'design');
#650=PRODUCT_DEFINITION('LED 5mm','LED 5mm v2',#651,#649);
#651=PRODUCT_DEFINITION_FORMATION('',$,#656);
#652=PRODUCT_RELATED_PRODUCT_CATEGORY('LED 5mm v2','LED 5mm v2',(#656));
#653=APPLICATION_PROTOCOL_DEFINITION('international standard',
'automotive_design',2009,#654);
#654=APPLICATION_CONTEXT(
'Core Data for Automotive Mechanical Design Process');
#655=PRODUCT_CONTEXT('part definition',#654,'mechanical');
#656=PRODUCT('LED 5mm','LED 5mm v2',$,(#655));
#657=PRESENTATION_STYLE_ASSIGNMENT((#660));
#658=PRESENTATION_STYLE_ASSIGNMENT((#661));
#659=PRESENTATION_STYLE_ASSIGNMENT((#662));
#660=SURFACE_STYLE_USAGE(.BOTH.,#663);
#661=SURFACE_STYLE_USAGE(.BOTH.,#664);
#662=SURFACE_STYLE_USAGE(.BOTH.,#665);
#663=SURFACE_SIDE_STYLE('',(#666));
#664=SURFACE_SIDE_STYLE('',(#667));
#665=SURFACE_SIDE_STYLE('',(#668));
#666=SURFACE_STYLE_FILL_AREA(#669);
#667=SURFACE_STYLE_FILL_AREA(#670);
#668=SURFACE_STYLE_FILL_AREA(#671);
#669=FILL_AREA_STYLE('Steel - Satin',(#672));
#670=FILL_AREA_STYLE('Acrylic (Red)',(#673));
#671=FILL_AREA_STYLE('Aluminum - Satin',(#674));
#672=FILL_AREA_STYLE_COLOUR('Steel - Satin',#675);
#673=FILL_AREA_STYLE_COLOUR('Acrylic (Red)',#676);
#674=FILL_AREA_STYLE_COLOUR('Aluminum - Satin',#677);
#675=COLOUR_RGB('Steel - Satin',0.627450980392157,0.627450980392157,0.627450980392157);
#676=COLOUR_RGB('Acrylic (Red)',1.,0.,0.);
#677=COLOUR_RGB('Aluminum - Satin',0.96078431372549,0.96078431372549,0.964705882352941);
ENDSEC;
END-ISO-10303-21;
